<svg width="200" height="78" viewBox="0 0 200 78" fill="none" xmlns="http://www.w3.org/2000/svg">
<rect x="0.00585938" width="200" height="77.08" rx="10" fill="white"/>
<path d="M16.4299 64V58.72H15.3019V58.04H17.2219V64H16.4299ZM18.7245 64L23.5885 58.04H24.4765L19.6125 64H18.7245ZM19.6205 61.064C19.3272 61.064 19.0632 60.9947 18.8285 60.856C18.5939 60.712 18.4045 60.5227 18.2605 60.288C18.1219 60.0533 18.0525 59.792 18.0525 59.504C18.0525 59.216 18.1219 58.9547 18.2605 58.72C18.4045 58.48 18.5939 58.2907 18.8285 58.152C19.0632 58.0133 19.3272 57.944 19.6205 57.944C19.9085 57.944 20.1699 58.0133 20.4045 58.152C20.6392 58.2907 20.8259 58.48 20.9645 58.72C21.1032 58.9547 21.1725 59.216 21.1725 59.504C21.1725 59.792 21.1032 60.0533 20.9645 60.288C20.8259 60.5227 20.6392 60.712 20.4045 60.856C20.1699 60.9947 19.9085 61.064 19.6205 61.064ZM19.6125 60.408C19.7939 60.408 19.9485 60.3653 20.0765 60.28C20.2045 60.1947 20.3059 60.0827 20.3805 59.944C20.4552 59.8053 20.4925 59.6587 20.4925 59.504C20.4925 59.344 20.4552 59.1973 20.3805 59.064C20.3059 58.9253 20.2045 58.8133 20.0765 58.728C19.9485 58.6373 19.7939 58.592 19.6125 58.592C19.4419 58.592 19.2899 58.6373 19.1565 58.728C19.0232 58.8133 18.9192 58.9253 18.8445 59.064C18.7699 59.2027 18.7325 59.3493 18.7325 59.504C18.7325 59.6533 18.7699 59.8 18.8445 59.944C18.9192 60.0827 19.0232 60.1947 19.1565 60.28C19.2899 60.3653 19.4419 60.408 19.6125 60.408ZM23.5325 64.096C23.2392 64.096 22.9752 64.0267 22.7405 63.888C22.5059 63.744 22.3165 63.5547 22.1725 63.32C22.0339 63.0853 21.9645 62.824 21.9645 62.536C21.9645 62.248 22.0339 61.9867 22.1725 61.752C22.3165 61.512 22.5059 61.3227 22.7405 61.184C22.9752 61.0453 23.2392 60.976 23.5325 60.976C23.8205 60.976 24.0819 61.0453 24.3165 61.184C24.5512 61.3227 24.7379 61.512 24.8765 61.752C25.0152 61.9867 25.0845 62.248 25.0845 62.536C25.0845 62.824 25.0152 63.0853 24.8765 63.32C24.7379 63.5547 24.5512 63.744 24.3165 63.888C24.0819 64.0267 23.8205 64.096 23.5325 64.096ZM23.5325 63.44C23.7085 63.44 23.8605 63.3973 23.9885 63.312C24.1219 63.2267 24.2232 63.1147 24.2925 62.976C24.3672 62.8373 24.4045 62.6907 24.4045 62.536C24.4045 62.376 24.3672 62.2293 24.2925 62.096C24.2232 61.9573 24.1219 61.8453 23.9885 61.76C23.8605 61.6693 23.7085 61.624 23.5325 61.624C23.3619 61.624 23.2072 61.6693 23.0685 61.76C22.9352 61.8453 22.8312 61.9573 22.7565 62.096C22.6819 62.2347 22.6445 62.3813 22.6445 62.536C22.6445 62.6853 22.6819 62.832 22.7565 62.976C22.8312 63.1147 22.9352 63.2267 23.0685 63.312C23.2072 63.3973 23.3619 63.44 23.5325 63.44ZM28.5637 64.096C28.1424 64.096 27.7664 63.9973 27.4357 63.8C27.1104 63.6027 26.8544 63.3333 26.6677 62.992C26.4811 62.6507 26.3877 62.2667 26.3877 61.84C26.3877 61.408 26.4811 61.024 26.6677 60.688C26.8544 60.352 27.1104 60.0853 27.4357 59.888C27.7664 59.6907 28.1424 59.592 28.5637 59.592C28.8464 59.592 29.1104 59.6427 29.3557 59.744C29.6011 59.8453 29.8171 59.9813 30.0037 60.152C30.1904 60.3227 30.3264 60.5227 30.4117 60.752L29.7477 61.072C29.6464 60.848 29.4917 60.6667 29.2837 60.528C29.0757 60.384 28.8357 60.312 28.5637 60.312C28.3024 60.312 28.0651 60.3787 27.8517 60.512C27.6437 60.6453 27.4784 60.8267 27.3557 61.056C27.2331 61.2853 27.1717 61.5493 27.1717 61.848C27.1717 62.136 27.2331 62.3973 27.3557 62.632C27.4784 62.8613 27.6437 63.0427 27.8517 63.176C28.0651 63.3093 28.3024 63.376 28.5637 63.376C28.8357 63.376 29.0757 63.3067 29.2837 63.168C29.4917 63.024 29.6464 62.8347 29.7477 62.6L30.4117 62.936C30.3264 63.16 30.1904 63.36 30.0037 63.536C29.8171 63.7067 29.6011 63.8427 29.3557 63.944C29.1104 64.0453 28.8464 64.096 28.5637 64.096ZM32.1134 64.096C31.8307 64.096 31.58 64.0453 31.3614 63.944C31.148 63.8373 30.98 63.6933 30.8574 63.512C30.7347 63.3253 30.6734 63.112 30.6734 62.872C30.6734 62.6427 30.7214 62.4373 30.8174 62.256C30.9187 62.0693 31.0734 61.912 31.2814 61.784C31.4947 61.656 31.7614 61.5653 32.0814 61.512L33.6814 61.248V61.872L32.2494 62.112C31.972 62.16 31.7694 62.248 31.6414 62.376C31.5187 62.504 31.4574 62.6613 31.4574 62.848C31.4574 63.024 31.5267 63.1707 31.6654 63.288C31.8094 63.4053 31.988 63.464 32.2014 63.464C32.4734 63.464 32.708 63.408 32.9054 63.296C33.108 63.1787 33.2654 63.0213 33.3774 62.824C33.4947 62.6267 33.5534 62.408 33.5534 62.168V61.072C33.5534 60.8373 33.4654 60.648 33.2894 60.504C33.1187 60.3547 32.892 60.28 32.6094 60.28C32.364 60.28 32.1454 60.344 31.9534 60.472C31.7667 60.5947 31.628 60.76 31.5374 60.968L30.8894 60.632C30.9694 60.4347 31.0974 60.2587 31.2734 60.104C31.4494 59.944 31.6547 59.8187 31.8894 59.728C32.124 59.6373 32.3694 59.592 32.6254 59.592C32.956 59.592 33.2467 59.656 33.4974 59.784C33.748 59.9067 33.9427 60.08 34.0814 60.304C34.2254 60.5227 34.2974 60.7787 34.2974 61.072V64H33.5694V63.184L33.7054 63.232C33.6147 63.4027 33.492 63.552 33.3374 63.68C33.1827 63.808 33.0014 63.9093 32.7934 63.984C32.5854 64.0587 32.3587 64.096 32.1134 64.096ZM36.5149 64.096C36.0829 64.096 35.7069 63.9893 35.3869 63.776C35.0669 63.5627 34.8403 63.2747 34.7069 62.912L35.2989 62.624C35.4216 62.88 35.5896 63.0827 35.8029 63.232C36.0163 63.3813 36.2536 63.456 36.5149 63.456C36.7496 63.456 36.9443 63.4 37.0989 63.288C37.2536 63.176 37.3309 63.0293 37.3309 62.848C37.3309 62.72 37.2936 62.6187 37.2189 62.544C37.1496 62.464 37.0643 62.4027 36.9629 62.36C36.8616 62.312 36.7683 62.2773 36.6829 62.256L36.0349 62.072C35.6456 61.96 35.3603 61.8 35.1789 61.592C35.0029 61.384 34.9149 61.1413 34.9149 60.864C34.9149 60.608 34.9789 60.3867 35.1069 60.2C35.2403 60.008 35.4189 59.8587 35.6429 59.752C35.8723 59.6453 36.1283 59.592 36.4109 59.592C36.7896 59.592 37.1283 59.688 37.4269 59.88C37.7309 60.072 37.9469 60.3413 38.0749 60.688L37.4669 60.968C37.3709 60.744 37.2269 60.568 37.0349 60.44C36.8429 60.3067 36.6269 60.24 36.3869 60.24C36.1683 60.24 35.9949 60.296 35.8669 60.408C35.7389 60.5147 35.6749 60.6507 35.6749 60.816C35.6749 60.9387 35.7069 61.04 35.7709 61.12C35.8349 61.1947 35.9123 61.2533 36.0029 61.296C36.0936 61.3333 36.1816 61.3653 36.2669 61.392L36.9709 61.6C37.3229 61.7013 37.5949 61.8587 37.7869 62.072C37.9843 62.2853 38.0829 62.5413 38.0829 62.84C38.0829 63.08 38.0163 63.296 37.8829 63.488C37.7496 63.68 37.5656 63.8293 37.3309 63.936C37.0963 64.0427 36.8243 64.096 36.5149 64.096ZM38.5769 64V57.944H39.3209V60.528L39.1849 60.456C39.2915 60.184 39.4622 59.9733 39.6969 59.824C39.9369 59.6693 40.2169 59.592 40.5369 59.592C40.8462 59.592 41.1209 59.6613 41.3609 59.8C41.6062 59.9387 41.7982 60.1307 41.9369 60.376C42.0809 60.6213 42.1529 60.8987 42.1529 61.208V64H41.4009V61.448C41.4009 61.208 41.3555 61.0053 41.2649 60.84C41.1795 60.6747 41.0595 60.5467 40.9049 60.456C40.7502 60.36 40.5715 60.312 40.3689 60.312C40.1715 60.312 39.9929 60.36 39.8329 60.456C39.6729 60.5467 39.5475 60.6773 39.4569 60.848C39.3662 61.0133 39.3209 61.2133 39.3209 61.448V64H38.5769ZM44.9695 64.096C44.6228 64.096 44.3055 64.0187 44.0175 63.864C43.7348 63.7093 43.5162 63.4907 43.3615 63.208L43.4655 63.08V64H42.7375V57.944H43.4815V60.616L43.3695 60.432C43.5295 60.176 43.7482 59.9733 44.0255 59.824C44.3028 59.6693 44.6202 59.592 44.9775 59.592C45.3828 59.592 45.7455 59.6907 46.0655 59.888C46.3908 60.0853 46.6468 60.3547 46.8335 60.696C47.0202 61.032 47.1135 61.416 47.1135 61.848C47.1135 62.2693 47.0202 62.6507 46.8335 62.992C46.6468 63.3333 46.3908 63.6027 46.0655 63.8C45.7455 63.9973 45.3802 64.096 44.9695 64.096ZM44.9135 63.376C45.1855 63.376 45.4282 63.3093 45.6415 63.176C45.8548 63.0427 46.0202 62.8613 46.1375 62.632C46.2602 62.3973 46.3215 62.136 46.3215 61.848C46.3215 61.5493 46.2602 61.288 46.1375 61.064C46.0202 60.8347 45.8548 60.6533 45.6415 60.52C45.4282 60.3813 45.1855 60.312 44.9135 60.312C44.6415 60.312 44.3962 60.3787 44.1775 60.512C43.9642 60.6453 43.7935 60.8293 43.6655 61.064C43.5428 61.2933 43.4815 61.5547 43.4815 61.848C43.4815 62.136 43.5428 62.3973 43.6655 62.632C43.7935 62.8613 43.9642 63.0427 44.1775 63.176C44.3962 63.3093 44.6415 63.376 44.9135 63.376ZM48.873 64.096C48.5904 64.096 48.3397 64.0453 48.121 63.944C47.9077 63.8373 47.7397 63.6933 47.617 63.512C47.4944 63.3253 47.433 63.112 47.433 62.872C47.433 62.6427 47.481 62.4373 47.577 62.256C47.6784 62.0693 47.833 61.912 48.041 61.784C48.2544 61.656 48.521 61.5653 48.841 61.512L50.441 61.248V61.872L49.009 62.112C48.7317 62.16 48.529 62.248 48.401 62.376C48.2784 62.504 48.217 62.6613 48.217 62.848C48.217 63.024 48.2864 63.1707 48.425 63.288C48.569 63.4053 48.7477 63.464 48.961 63.464C49.233 63.464 49.4677 63.408 49.665 63.296C49.8677 63.1787 50.025 63.0213 50.137 62.824C50.2544 62.6267 50.313 62.408 50.313 62.168V61.072C50.313 60.8373 50.225 60.648 50.049 60.504C49.8784 60.3547 49.6517 60.28 49.369 60.28C49.1237 60.28 48.905 60.344 48.713 60.472C48.5264 60.5947 48.3877 60.76 48.297 60.968L47.649 60.632C47.729 60.4347 47.857 60.2587 48.033 60.104C48.209 59.944 48.4144 59.8187 48.649 59.728C48.8837 59.6373 49.129 59.592 49.385 59.592C49.7157 59.592 50.0064 59.656 50.257 59.784C50.5077 59.9067 50.7024 60.08 50.841 60.304C50.985 60.5227 51.057 60.7787 51.057 61.072V64H50.329V63.184L50.465 63.232C50.3744 63.4027 50.2517 63.552 50.097 63.68C49.9424 63.808 49.761 63.9093 49.553 63.984C49.345 64.0587 49.1184 64.096 48.873 64.096ZM53.7306 64.096C53.3093 64.096 52.9333 63.9973 52.6026 63.8C52.2773 63.6027 52.0213 63.3333 51.8346 62.992C51.6479 62.6507 51.5546 62.2667 51.5546 61.84C51.5546 61.408 51.6479 61.024 51.8346 60.688C52.0213 60.352 52.2773 60.0853 52.6026 59.888C52.9333 59.6907 53.3093 59.592 53.7306 59.592C54.0133 59.592 54.2773 59.6427 54.5226 59.744C54.7679 59.8453 54.9839 59.9813 55.1706 60.152C55.3573 60.3227 55.4933 60.5227 55.5786 60.752L54.9146 61.072C54.8133 60.848 54.6586 60.6667 54.4506 60.528C54.2426 60.384 54.0026 60.312 53.7306 60.312C53.4693 60.312 53.2319 60.3787 53.0186 60.512C52.8106 60.6453 52.6453 60.8267 52.5226 61.056C52.3999 61.2853 52.3386 61.5493 52.3386 61.848C52.3386 62.136 52.3999 62.3973 52.5226 62.632C52.6453 62.8613 52.8106 63.0427 53.0186 63.176C53.2319 63.3093 53.4693 63.376 53.7306 63.376C54.0026 63.376 54.2426 63.3067 54.4506 63.168C54.6586 63.024 54.8133 62.8347 54.9146 62.6L55.5786 62.936C55.4933 63.16 55.3573 63.36 55.1706 63.536C54.9839 63.7067 54.7679 63.8427 54.5226 63.944C54.2773 64.0453 54.0133 64.096 53.7306 64.096ZM56.0709 64V57.944H56.8149V62.096L56.5109 62.024L58.7989 59.688H59.7509L58.0949 61.424L59.8629 64H58.9829L57.3669 61.664L57.8309 61.64L56.5749 62.952L56.8149 62.408V64H56.0709ZM60.9547 64V59.688H61.6827V60.48L61.6027 60.368C61.704 60.1227 61.8587 59.9413 62.0667 59.824C62.2747 59.7013 62.528 59.64 62.8267 59.64H63.0907V60.344H62.7147C62.4107 60.344 62.1653 60.44 61.9787 60.632C61.792 60.8187 61.6987 61.0853 61.6987 61.432V64H60.9547ZM64.5355 64.096C64.2529 64.096 64.0022 64.0453 63.7835 63.944C63.5702 63.8373 63.4022 63.6933 63.2795 63.512C63.1569 63.3253 63.0955 63.112 63.0955 62.872C63.0955 62.6427 63.1435 62.4373 63.2395 62.256C63.3409 62.0693 63.4955 61.912 63.7035 61.784C63.9169 61.656 64.1835 61.5653 64.5035 61.512L66.1035 61.248V61.872L64.6715 62.112C64.3942 62.16 64.1915 62.248 64.0635 62.376C63.9409 62.504 63.8795 62.6613 63.8795 62.848C63.8795 63.024 63.9489 63.1707 64.0875 63.288C64.2315 63.4053 64.4102 63.464 64.6235 63.464C64.8955 63.464 65.1302 63.408 65.3275 63.296C65.5302 63.1787 65.6875 63.0213 65.7995 62.824C65.9169 62.6267 65.9755 62.408 65.9755 62.168V61.072C65.9755 60.8373 65.8875 60.648 65.7115 60.504C65.5409 60.3547 65.3142 60.28 65.0315 60.28C64.7862 60.28 64.5675 60.344 64.3755 60.472C64.1889 60.5947 64.0502 60.76 63.9595 60.968L63.3115 60.632C63.3915 60.4347 63.5195 60.2587 63.6955 60.104C63.8715 59.944 64.0769 59.8187 64.3115 59.728C64.5462 59.6373 64.7915 59.592 65.0475 59.592C65.3782 59.592 65.6689 59.656 65.9195 59.784C66.1702 59.9067 66.3649 60.08 66.5035 60.304C66.6475 60.5227 66.7195 60.7787 66.7195 61.072V64H65.9915V63.184L66.1275 63.232C66.0369 63.4027 65.9142 63.552 65.7595 63.68C65.6049 63.808 65.4235 63.9093 65.2155 63.984C65.0075 64.0587 64.7809 64.096 64.5355 64.096ZM69.067 64.048C68.6456 64.048 68.3203 63.928 68.091 63.688C67.867 63.448 67.755 63.1093 67.755 62.672V60.4H66.971V59.688H67.131C67.323 59.688 67.475 59.6293 67.587 59.512C67.699 59.3947 67.755 59.24 67.755 59.048V58.696H68.499V59.688H69.467V60.4H68.499V62.648C68.499 62.792 68.5203 62.9173 68.563 63.024C68.611 63.1307 68.6883 63.216 68.795 63.28C68.9016 63.3387 69.043 63.368 69.219 63.368C69.2563 63.368 69.3016 63.3653 69.355 63.36C69.4137 63.3547 69.467 63.3493 69.515 63.344V64C69.4456 64.016 69.3683 64.0267 69.283 64.032C69.1976 64.0427 69.1256 64.048 69.067 64.048ZM71.8737 64.096C71.4577 64.096 71.087 63.9973 70.7617 63.8C70.4363 63.6027 70.1803 63.3333 69.9937 62.992C69.807 62.6453 69.7137 62.2587 69.7137 61.832C69.7137 61.4 69.8043 61.016 69.9857 60.68C70.1723 60.344 70.423 60.08 70.7377 59.888C71.0577 59.6907 71.415 59.592 71.8097 59.592C72.1297 59.592 72.4123 59.6507 72.6577 59.768C72.9083 59.88 73.119 60.0347 73.2897 60.232C73.4657 60.424 73.599 60.6453 73.6897 60.896C73.7857 61.1413 73.8337 61.3973 73.8337 61.664C73.8337 61.7227 73.8283 61.7893 73.8177 61.864C73.8123 61.9333 73.8043 62 73.7937 62.064H70.2577V61.424H73.3617L73.0097 61.712C73.0577 61.4347 73.031 61.1867 72.9297 60.968C72.8283 60.7493 72.679 60.576 72.4817 60.448C72.2843 60.32 72.0603 60.256 71.8097 60.256C71.559 60.256 71.3297 60.32 71.1217 60.448C70.9137 60.576 70.751 60.76 70.6337 61C70.5217 61.2347 70.4763 61.5147 70.4977 61.84C70.4763 62.1547 70.5243 62.432 70.6417 62.672C70.7643 62.9067 70.935 63.0907 71.1537 63.224C71.3777 63.352 71.6203 63.416 71.8817 63.416C72.1697 63.416 72.4123 63.3493 72.6097 63.216C72.807 63.0827 72.967 62.912 73.0897 62.704L73.7137 63.024C73.6283 63.2213 73.495 63.4027 73.3137 63.568C73.1377 63.728 72.927 63.856 72.6817 63.952C72.4417 64.048 72.1723 64.096 71.8737 64.096Z" fill="black"/>
<path d="M16.0399 46V32.59H19.5859L24.0859 44.956L23.2399 45.226V32.59H25.9219V46H22.3579L17.9659 33.562L18.7399 33.292V46H16.0399ZM14.5999 40.096V38.476H27.3619V40.096H14.5999ZM27.8689 46L32.3869 40.222L32.8369 40.852C32.6689 40.924 32.5069 40.99 32.3509 41.05C32.2069 41.098 32.0569 41.134 31.9009 41.158C31.7449 41.182 31.5829 41.194 31.4149 41.194C30.5869 41.194 29.8489 41.008 29.2009 40.636C28.5649 40.264 28.0609 39.76 27.6889 39.124C27.3289 38.476 27.1489 37.75 27.1489 36.946C27.1489 36.058 27.3529 35.272 27.7609 34.588C28.1689 33.904 28.7329 33.364 29.4529 32.968C30.1729 32.572 30.9949 32.374 31.9189 32.374C32.8549 32.374 33.6769 32.572 34.3849 32.968C35.1049 33.352 35.6689 33.88 36.0769 34.552C36.4849 35.212 36.6889 35.968 36.6889 36.82C36.6889 37.24 36.6469 37.66 36.5629 38.08C36.4789 38.5 36.3109 38.962 36.0589 39.466C35.8069 39.958 35.4289 40.534 34.9249 41.194L31.1989 46H27.8689ZM31.9189 38.908C32.2909 38.908 32.6209 38.824 32.9089 38.656C33.2089 38.488 33.4489 38.254 33.6289 37.954C33.8089 37.654 33.8989 37.306 33.8989 36.91C33.8989 36.502 33.8089 36.148 33.6289 35.848C33.4489 35.548 33.2089 35.314 32.9089 35.146C32.6209 34.978 32.2909 34.894 31.9189 34.894C31.5589 34.894 31.2289 34.978 30.9289 35.146C30.6289 35.314 30.3889 35.548 30.2089 35.848C30.0289 36.148 29.9389 36.502 29.9389 36.91C29.9389 37.306 30.0289 37.654 30.2089 37.954C30.3889 38.254 30.6289 38.488 30.9289 38.656C31.2289 38.824 31.5589 38.908 31.9189 38.908ZM41.5542 46.216C40.5462 46.216 39.6762 46.03 38.9442 45.658C38.2242 45.286 37.6722 44.788 37.2882 44.164C36.9042 43.54 36.7122 42.862 36.7122 42.13C36.7122 41.254 36.9402 40.522 37.3962 39.934C37.8642 39.346 38.5482 38.902 39.4482 38.602L39.2682 39.286C38.6322 39.094 38.1222 38.698 37.7382 38.098C37.3662 37.498 37.1802 36.832 37.1802 36.1C37.1802 35.38 37.3662 34.738 37.7382 34.174C38.1102 33.61 38.6262 33.172 39.2862 32.86C39.9462 32.536 40.7022 32.374 41.5542 32.374C42.4062 32.374 43.1562 32.536 43.8042 32.86C44.4642 33.172 44.9802 33.61 45.3522 34.174C45.7362 34.738 45.9282 35.38 45.9282 36.1C45.9282 36.832 45.7422 37.498 45.3702 38.098C44.9982 38.698 44.4882 39.1 43.8402 39.304L43.6782 38.584C44.5782 38.92 45.2622 39.382 45.7302 39.97C46.1982 40.546 46.4322 41.272 46.4322 42.148C46.4322 42.88 46.2342 43.558 45.8382 44.182C45.4542 44.794 44.8962 45.286 44.1642 45.658C43.4322 46.03 42.5622 46.216 41.5542 46.216ZM41.5542 43.876C41.9742 43.876 42.3402 43.798 42.6522 43.642C42.9642 43.486 43.2042 43.27 43.3722 42.994C43.5522 42.718 43.6422 42.4 43.6422 42.04C43.6422 41.668 43.5522 41.35 43.3722 41.086C43.2042 40.81 42.9642 40.6 42.6522 40.456C42.3402 40.3 41.9742 40.222 41.5542 40.222C41.1462 40.222 40.7862 40.3 40.4742 40.456C40.1742 40.6 39.9342 40.81 39.7542 41.086C39.5862 41.35 39.5022 41.668 39.5022 42.04C39.5022 42.4 39.5862 42.718 39.7542 42.994C39.9342 43.27 40.1742 43.486 40.4742 43.642C40.7862 43.798 41.1462 43.876 41.5542 43.876ZM41.5542 37.882C41.8782 37.882 42.1542 37.81 42.3822 37.666C42.6222 37.522 42.8082 37.33 42.9402 37.09C43.0722 36.85 43.1382 36.586 43.1382 36.298C43.1382 35.998 43.0722 35.728 42.9402 35.488C42.8082 35.248 42.6222 35.062 42.3822 34.93C42.1542 34.786 41.8782 34.714 41.5542 34.714C41.2422 34.714 40.9662 34.786 40.7262 34.93C40.4862 35.062 40.3002 35.248 40.1682 35.488C40.0362 35.728 39.9702 35.998 39.9702 36.298C39.9702 36.586 40.0362 36.85 40.1682 37.09C40.3002 37.33 40.4862 37.522 40.7262 37.666C40.9662 37.81 41.2422 37.882 41.5542 37.882ZM47.0368 46L52.4548 34.93H46.2628V32.59H55.3888V34.93L50.1328 46H47.0368ZM55.1713 48.97V47.62C55.5913 47.524 55.9333 47.338 56.1973 47.062C56.4733 46.798 56.6533 46.444 56.7373 46H55.5313V43.3H58.2313V44.866C58.2313 46.006 57.9733 46.924 57.4573 47.62C56.9413 48.316 56.1793 48.766 55.1713 48.97ZM59.4107 46V43.84L63.0107 40.132C63.7187 39.4 64.2527 38.824 64.6127 38.404C64.9847 37.972 65.2367 37.612 65.3687 37.324C65.5127 37.036 65.5847 36.754 65.5847 36.478C65.5847 35.986 65.4227 35.602 65.0987 35.326C64.7867 35.038 64.3907 34.894 63.9107 34.894C63.4187 34.894 62.9807 35.038 62.5967 35.326C62.2127 35.602 61.9307 36.028 61.7507 36.604L59.3207 35.812C59.4647 35.116 59.7647 34.51 60.2207 33.994C60.6767 33.478 61.2287 33.082 61.8767 32.806C62.5247 32.518 63.2027 32.374 63.9107 32.374C64.7987 32.374 65.5787 32.53 66.2507 32.842C66.9227 33.154 67.4447 33.592 67.8167 34.156C68.1887 34.72 68.3747 35.38 68.3747 36.136C68.3747 36.616 68.2907 37.09 68.1227 37.558C67.9547 38.014 67.6967 38.482 67.3487 38.962C67.0127 39.43 66.5747 39.94 66.0347 40.492L62.9567 43.66H68.5007V46H59.4107ZM74.2376 46V43.12H68.2976V40.78L74.0576 32.59H77.0276V40.78H79.0976V43.12H77.0276V46H74.2376ZM70.3316 41.788L69.8096 40.78H74.2376V34.75L74.9396 34.966L70.3316 41.788ZM84.4595 46.216C83.3915 46.216 82.4495 45.928 81.6335 45.352C80.8295 44.776 80.1995 43.966 79.7435 42.922C79.2875 41.878 79.0595 40.666 79.0595 39.286C79.0595 37.894 79.2815 36.682 79.7255 35.65C80.1815 34.618 80.8115 33.814 81.6155 33.238C82.4315 32.662 83.3735 32.374 84.4415 32.374C85.5335 32.374 86.4815 32.662 87.2855 33.238C88.1015 33.814 88.7315 34.624 89.1755 35.668C89.6315 36.7 89.8595 37.906 89.8595 39.286C89.8595 40.666 89.6315 41.878 89.1755 42.922C88.7315 43.954 88.1015 44.764 87.2855 45.352C86.4815 45.928 85.5395 46.216 84.4595 46.216ZM84.4775 43.696C85.0295 43.696 85.4975 43.522 85.8815 43.174C86.2655 42.826 86.5595 42.322 86.7635 41.662C86.9675 41.002 87.0695 40.21 87.0695 39.286C87.0695 38.362 86.9675 37.576 86.7635 36.928C86.5595 36.268 86.2595 35.764 85.8635 35.416C85.4795 35.068 85.0055 34.894 84.4415 34.894C83.8895 34.894 83.4215 35.068 83.0375 35.416C82.6535 35.764 82.3595 36.268 82.1555 36.928C81.9515 37.576 81.8495 38.362 81.8495 39.286C81.8495 40.198 81.9515 40.984 82.1555 41.644C82.3595 42.304 82.6535 42.814 83.0375 43.174C83.4335 43.522 83.9135 43.696 84.4775 43.696Z" fill="black"/>
<path d="M18.6699 20.132C18.0832 20.132 17.5369 20.0257 17.0309 19.813C16.5249 19.6003 16.0812 19.3033 15.6999 18.922C15.3185 18.5407 15.0215 18.0933 14.8089 17.58C14.5962 17.0667 14.4899 16.5057 14.4899 15.897C14.4899 15.2883 14.5925 14.7273 14.7979 14.214C15.0032 13.6933 15.2929 13.246 15.6669 12.872C16.0409 12.4907 16.4772 12.1973 16.9759 11.992C17.4819 11.7793 18.0319 11.673 18.6259 11.673C19.2199 11.673 19.7515 11.772 20.2209 11.97C20.6975 12.168 21.1009 12.432 21.4309 12.762C21.7609 13.092 21.9955 13.4587 22.1349 13.862L20.6279 14.588C20.4885 14.192 20.2429 13.8657 19.8909 13.609C19.5462 13.345 19.1245 13.213 18.6259 13.213C18.1419 13.213 17.7165 13.3267 17.3499 13.554C16.9832 13.7813 16.6972 14.0967 16.4919 14.5C16.2939 14.896 16.1949 15.3617 16.1949 15.897C16.1949 16.4323 16.3012 16.9017 16.5139 17.305C16.7265 17.7083 17.0162 18.0237 17.3829 18.251C17.7569 18.4783 18.1859 18.592 18.6699 18.592C19.0439 18.592 19.3922 18.5223 19.7149 18.383C20.0449 18.2363 20.3089 18.0273 20.5069 17.756C20.7122 17.4847 20.8149 17.1583 20.8149 16.777V16.095L21.5959 16.755H18.6259V15.325H22.5199V16.194C22.5199 16.8613 22.4099 17.4443 22.1899 17.943C21.9699 18.4343 21.6729 18.845 21.2989 19.175C20.9322 19.4977 20.5179 19.7397 20.0559 19.901C19.6012 20.055 19.1392 20.132 18.6699 20.132ZM22.9717 20V13.994H24.6217V20H22.9717ZM22.9717 13.455V11.805H24.6217V13.455H22.9717ZM26.0751 20V15.424H25.0631V13.994H26.0751V13.906C26.0751 13.4293 26.1668 13.026 26.3501 12.696C26.5408 12.366 26.8121 12.113 27.1641 11.937C27.5161 11.761 27.9414 11.673 28.4401 11.673C28.5354 11.673 28.6381 11.6803 28.7481 11.695C28.8581 11.7023 28.9498 11.7133 29.0231 11.728V13.136C28.9498 13.1213 28.8838 13.114 28.8251 13.114C28.7738 13.1067 28.7188 13.103 28.6601 13.103C28.3521 13.103 28.1174 13.1727 27.9561 13.312C27.8021 13.444 27.7251 13.642 27.7251 13.906V13.994H29.0121V15.424H27.7251V20H26.0751ZM32.5961 20.066C31.8701 20.066 31.3054 19.8717 30.9021 19.483C30.5061 19.087 30.3081 18.537 30.3081 17.833V15.424H29.2961V13.994H29.3511C29.6591 13.994 29.8938 13.917 30.0551 13.763C30.2238 13.609 30.3081 13.378 30.3081 13.07V12.63H31.9581V13.994H33.3661V15.424H31.9581V17.723C31.9581 17.9283 31.9948 18.1007 32.0681 18.24C32.1414 18.372 32.2551 18.471 32.4091 18.537C32.5631 18.603 32.7538 18.636 32.9811 18.636C33.0324 18.636 33.0911 18.6323 33.1571 18.625C33.2231 18.6177 33.2928 18.6103 33.3661 18.603V20C33.2561 20.0147 33.1314 20.0293 32.9921 20.044C32.8528 20.0587 32.7208 20.066 32.5961 20.066ZM39.3645 20.132C38.7779 20.132 38.2315 20.0257 37.7255 19.813C37.2269 19.6003 36.7905 19.3033 36.4165 18.922C36.0425 18.5407 35.7492 18.0933 35.5365 17.58C35.3312 17.0667 35.2285 16.5057 35.2285 15.897C35.2285 15.2883 35.3312 14.7273 35.5365 14.214C35.7419 13.6933 36.0315 13.246 36.4055 12.872C36.7795 12.4907 37.2159 12.1973 37.7145 11.992C38.2205 11.7793 38.7705 11.673 39.3645 11.673C39.9585 11.673 40.4902 11.772 40.9595 11.97C41.4362 12.168 41.8395 12.432 42.1695 12.762C42.4995 13.092 42.7342 13.4587 42.8735 13.862L41.3665 14.588C41.2272 14.192 40.9815 13.8657 40.6295 13.609C40.2849 13.345 39.8632 13.213 39.3645 13.213C38.8805 13.213 38.4552 13.3267 38.0885 13.554C37.7219 13.7813 37.4359 14.0967 37.2305 14.5C37.0325 14.896 36.9335 15.3617 36.9335 15.897C36.9335 16.4323 37.0325 16.9017 37.2305 17.305C37.4359 17.7083 37.7219 18.0237 38.0885 18.251C38.4552 18.4783 38.8805 18.592 39.3645 18.592C39.8632 18.592 40.2849 18.4637 40.6295 18.207C40.9815 17.943 41.2272 17.613 41.3665 17.217L42.8735 17.943C42.7342 18.3463 42.4995 18.713 42.1695 19.043C41.8395 19.373 41.4362 19.637 40.9595 19.835C40.4902 20.033 39.9585 20.132 39.3645 20.132ZM45.1182 20.132C44.6855 20.132 44.3115 20.0623 43.9962 19.923C43.6808 19.7837 43.4388 19.5857 43.2702 19.329C43.1015 19.065 43.0172 18.7533 43.0172 18.394C43.0172 18.0567 43.0942 17.7597 43.2482 17.503C43.4022 17.239 43.6368 17.019 43.9522 16.843C44.2748 16.667 44.6745 16.5423 45.1512 16.469L46.9882 16.172V17.382L45.4482 17.657C45.2135 17.701 45.0338 17.778 44.9092 17.888C44.7845 17.9907 44.7222 18.141 44.7222 18.339C44.7222 18.5223 44.7918 18.6653 44.9312 18.768C45.0705 18.8707 45.2428 18.922 45.4482 18.922C45.7195 18.922 45.9578 18.8633 46.1632 18.746C46.3685 18.6287 46.5262 18.471 46.6362 18.273C46.7535 18.0677 46.8122 17.844 46.8122 17.602V16.04C46.8122 15.8127 46.7205 15.622 46.5372 15.468C46.3612 15.314 46.1192 15.237 45.8112 15.237C45.5178 15.237 45.2575 15.3177 45.0302 15.479C44.8102 15.6403 44.6488 15.853 44.5462 16.117L43.2262 15.49C43.3435 15.1527 43.5305 14.863 43.7872 14.621C44.0438 14.379 44.3518 14.192 44.7112 14.06C45.0705 13.928 45.4628 13.862 45.8882 13.862C46.3942 13.862 46.8415 13.9537 47.2302 14.137C47.6188 14.3203 47.9195 14.577 48.1322 14.907C48.3522 15.2297 48.4622 15.6073 48.4622 16.04V20H46.9222V19.032L47.2962 18.966C47.1202 19.23 46.9258 19.45 46.7132 19.626C46.5005 19.7947 46.2622 19.9193 45.9982 20C45.7342 20.088 45.4408 20.132 45.1182 20.132ZM49.1923 20V13.994H50.7323V15.435L50.6223 15.226C50.7543 14.72 50.9706 14.379 51.2713 14.203C51.5793 14.0197 51.9423 13.928 52.3603 13.928H52.7123V15.358H52.1953C51.7919 15.358 51.4656 15.4827 51.2163 15.732C50.9669 15.974 50.8423 16.3187 50.8423 16.766V20H49.1923ZM55.7824 20.132C55.1958 20.132 54.6714 19.9927 54.2094 19.714C53.7474 19.4353 53.3808 19.0577 53.1094 18.581C52.8454 18.1043 52.7134 17.5763 52.7134 16.997C52.7134 16.4103 52.8491 15.8823 53.1204 15.413C53.3918 14.9363 53.7584 14.5587 54.2204 14.28C54.6824 14.0013 55.1994 13.862 55.7714 13.862C56.2114 13.862 56.6001 13.9463 56.9374 14.115C57.2821 14.2763 57.5534 14.5073 57.7514 14.808L57.4984 15.138V11.673H59.1484V20H57.6084V18.9L57.7624 19.241C57.5571 19.5343 57.2784 19.758 56.9264 19.912C56.5744 20.0587 56.1931 20.132 55.7824 20.132ZM55.9804 18.647C56.2811 18.647 56.5451 18.5773 56.7724 18.438C56.9998 18.2987 57.1758 18.1043 57.3004 17.855C57.4324 17.6057 57.4984 17.3197 57.4984 16.997C57.4984 16.6743 57.4324 16.3883 57.3004 16.139C57.1758 15.8897 56.9998 15.6953 56.7724 15.556C56.5451 15.4167 56.2811 15.347 55.9804 15.347C55.6798 15.347 55.4084 15.4203 55.1664 15.567C54.9318 15.7063 54.7484 15.9007 54.6164 16.15C54.4844 16.392 54.4184 16.6743 54.4184 16.997C54.4184 17.3197 54.4844 17.6057 54.6164 17.855C54.7484 18.1043 54.9318 18.2987 55.1664 18.438C55.4084 18.5773 55.6798 18.647 55.9804 18.647ZM62.2308 20.132C61.5708 20.132 60.9951 19.978 60.5038 19.67C60.0198 19.3547 59.6898 18.933 59.5138 18.405L60.7238 17.833C60.8778 18.1557 61.0868 18.4087 61.3508 18.592C61.6148 18.7753 61.9081 18.867 62.2308 18.867C62.4655 18.867 62.6451 18.8193 62.7698 18.724C62.8945 18.6287 62.9568 18.4967 62.9568 18.328C62.9568 18.24 62.9348 18.1667 62.8908 18.108C62.8468 18.042 62.7808 17.9833 62.6928 17.932C62.6048 17.8807 62.4948 17.8367 62.3628 17.8L61.3398 17.514C60.8485 17.3747 60.4708 17.151 60.2068 16.843C59.9428 16.5277 59.8108 16.1573 59.8108 15.732C59.8108 15.358 59.9061 15.0317 60.0968 14.753C60.2875 14.4743 60.5551 14.258 60.8998 14.104C61.2445 13.9427 61.6405 13.862 62.0878 13.862C62.6745 13.862 63.1878 14.0013 63.6278 14.28C64.0751 14.5513 64.3905 14.9363 64.5738 15.435L63.3528 16.007C63.2648 15.7577 63.1035 15.5597 62.8688 15.413C62.6415 15.259 62.3811 15.182 62.0878 15.182C61.8751 15.182 61.7065 15.226 61.5818 15.314C61.4645 15.402 61.4058 15.523 61.4058 15.677C61.4058 15.7577 61.4278 15.831 61.4718 15.897C61.5158 15.963 61.5855 16.0217 61.6808 16.073C61.7835 16.1243 61.9081 16.172 62.0548 16.216L63.0118 16.502C63.5105 16.6487 63.8918 16.8723 64.1558 17.173C64.4198 17.4663 64.5518 17.8293 64.5518 18.262C64.5518 18.636 64.4528 18.9623 64.2548 19.241C64.0641 19.5197 63.7965 19.7397 63.4518 19.901C63.1071 20.055 62.7001 20.132 62.2308 20.132Z" fill="#E5489B"/>
<rect x="154.006" y="23" width="32" height="32" rx="6" fill="#FED6F1"/>
<path fill-rule="evenodd" clip-rule="evenodd" d="M163.256 35.5C163.256 34.9477 163.704 34.5 164.256 34.5H175.756C176.308 34.5 176.756 34.9477 176.756 35.5V35.75C176.756 36.3023 176.308 36.75 175.756 36.75H164.256C163.704 36.75 163.256 36.3023 163.256 35.75V35.5ZM164.006 39.25C164.006 38.6977 164.454 38.25 165.006 38.25H168.256C168.808 38.25 169.256 38.6977 169.256 39.25V44C169.256 44.5523 168.808 45 168.256 45H165.006C164.454 45 164.006 44.5523 164.006 44V39.25ZM171.756 38.25C171.204 38.25 170.756 38.6977 170.756 39.25V44C170.756 44.5523 171.204 45 171.756 45H175.006C175.558 45 176.006 44.5523 176.006 44V39.25C176.006 38.6977 175.558 38.25 175.006 38.25H171.756Z" fill="#FF0083"/>
<path opacity="0.3" d="M171.84 31.626C172.184 31.3963 172.65 31.4894 172.88 31.8341C173.11 32.1787 173.016 32.6444 172.672 32.8741L170.006 34.6515L167.34 32.8741C166.995 32.6444 166.902 32.1787 167.132 31.8341C167.362 31.4894 167.827 31.3963 168.172 31.626L170.006 32.8487L171.84 31.626Z" fill="#FF0083"/>
</svg>
