<svg version="1.1" xmlns="http://www.w3.org/2000/svg" width="90" height="90" viewBox="0 0 90 90" fill="none"><path d="M0 0 C1.11455566 -0.00630432 2.22911133 -0.01260864 3.37744141 -0.019104 C4.58577637 -0.01505554 5.79411133 -0.01100708 7.0390625 -0.00683594 C8.89217041 -0.00970612 8.89217041 -0.00970612 10.78271484 -0.01263428 C14.06997657 -0.01434704 17.35705037 -0.00627793 20.64428711 0.00488281 C22.6620078 0.00878509 24.67955451 0.00489736 26.69726562 -0.00195312 C30.56128078 -0.01427098 34.42503678 -0.01282072 38.2890625 -0.00683594 C39.49739746 -0.0108844 40.70573242 -0.01493286 41.95068359 -0.019104 C43.06523926 -0.01279968 44.17979492 -0.00649536 45.328125 0 C46.80466553 0.00238678 46.80466553 0.00238678 48.31103516 0.00482178 C50.6640625 0.25878906 50.6640625 0.25878906 52.6640625 2.25878906 C52.91802979 5.06738281 52.91802979 5.06738281 52.92285156 8.69628906 C52.9263562 9.35661133 52.92986084 10.01693359 52.93347168 10.69726562 C52.94228931 12.88454639 52.93643993 15.07150489 52.9296875 17.25878906 C52.93103415 18.77571678 52.93297467 20.29264408 52.93548584 21.80957031 C52.93843714 24.99060165 52.93413934 28.17152076 52.92480469 31.35253906 C52.91341007 35.43506808 52.91996952 39.51733415 52.93194962 43.59985352 C52.93916811 46.73276764 52.93688036 49.86561917 52.93169403 52.99853516 C52.9303575 54.50406932 52.93200538 56.00960913 52.93665314 57.51513672 C52.94171829 59.61734118 52.93400877 61.71911664 52.92285156 63.82128906 C52.92126038 65.01882812 52.91966919 66.21636719 52.91802979 67.45019531 C52.6640625 70.25878906 52.6640625 70.25878906 50.6640625 72.25878906 C48.58862305 72.49829102 48.58862305 72.49829102 46.05078125 72.49707031 C45.13232422 72.51318359 44.21386719 72.52929688 43.26757812 72.54589844 C41.33535269 72.56272291 39.40299071 72.56807356 37.47070312 72.56152344 C31.55084459 72.63484287 31.55084459 72.63484287 26.65625 75.79785156 C25.99882813 76.60996094 25.34140625 77.42207031 24.6640625 78.25878906 C22.1015625 78.32128906 22.1015625 78.32128906 19.6640625 77.25878906 C19.17292969 76.58976562 18.68179688 75.92074219 18.17578125 75.23144531 C14.19492555 72.10495678 9.96054997 72.66024867 5.0390625 72.63378906 C3.13007783 72.60833593 1.22117785 72.57487858 -0.6875 72.53222656 C-1.53135254 72.52626465 -2.37520508 72.52030273 -3.24462891 72.51416016 C-5.3359375 72.25878906 -5.3359375 72.25878906 -7.3359375 70.25878906 C-7.58990479 67.45019531 -7.58990479 67.45019531 -7.59472656 63.82128906 C-7.5982312 63.1609668 -7.60173584 62.50064453 -7.60534668 61.8203125 C-7.61416431 59.63303174 -7.60831493 57.44607323 -7.6015625 55.25878906 C-7.60290915 53.74186135 -7.60484967 52.22493405 -7.60736084 50.70800781 C-7.61031214 47.52697648 -7.60601434 44.34605737 -7.59667969 41.16503906 C-7.58528507 37.08251005 -7.59184452 33.00024397 -7.60382462 28.91772461 C-7.61104311 25.78481048 -7.60875536 22.65195895 -7.60356903 19.51904297 C-7.6022325 18.0135088 -7.60388038 16.50796899 -7.60852814 15.00244141 C-7.61359329 12.90023694 -7.60588377 10.79846148 -7.59472656 8.69628906 C-7.59313538 7.49875 -7.59154419 6.30121094 -7.58990479 5.06738281 C-7.12066408 -0.12189392 -4.54832173 0.00735221 0 0 Z M20.6640625 17.25878906 C20.0040625 17.91878906 19.3440625 18.57878906 18.6640625 19.25878906 C18.98447647 21.86159474 18.98447647 21.86159474 19.6640625 24.25878906 C22.06125682 24.93837509 22.06125682 24.93837509 24.6640625 25.25878906 C25.3240625 24.59878906 25.9840625 23.93878906 26.6640625 23.25878906 C26.34364853 20.65598338 26.34364853 20.65598338 25.6640625 18.25878906 C23.26686818 17.57920303 23.26686818 17.57920303 20.6640625 17.25878906 Z M19.6640625 33.25878906 C19.6640625 40.18878906 19.6640625 47.11878906 19.6640625 54.25878906 C21.6440625 54.25878906 23.6240625 54.25878906 25.6640625 54.25878906 C25.6640625 47.32878906 25.6640625 40.39878906 25.6640625 33.25878906 C23.6840625 33.25878906 21.7040625 33.25878906 19.6640625 33.25878906 Z" fill="currentColor" transform="translate(22.3359375,8.7412109375)"></path></svg>