<svg width="32" height="32" viewBox="0 0 32 32" fill="none" xmlns="http://www.w3.org/2000/svg"><path d="M22.6641 5.33268V26.666C24.1307 26.666 25.3307 25.466 25.3307 23.9993V7.99935C25.3307 6.53268 24.1307 5.33268 22.6641 5.33268ZM17.3307 2.66602H5.33073C3.86406 2.66602 2.66406 3.86602 2.66406 5.33268V26.666C2.66406 28.1327 3.86406 29.3327 5.33073 29.3327H17.3307C18.7974 29.3327 19.9974 28.1327 19.9974 26.666V5.33268C19.9974 3.86602 18.7974 2.66602 17.3307 2.66602ZM17.3307 26.666H5.33073V5.33268H17.3307V26.666ZM27.9974 7.99935V23.9993C29.1041 23.9993 29.9974 23.106 29.9974 21.9993V9.99935C29.9974 8.89268 29.1041 7.99935 27.9974 7.99935Z" fill="currentColor"></path></svg>