<svg version="1.1" xmlns="http://www.w3.org/2000/svg" width="1em" height="1em" viewBox="0 0 90 90" fill="none" style="--size: 2rem;"><path d="M0 0 C1.08764648 -0.03673828 1.08764648 -0.03673828 2.19726562 -0.07421875 C7.75571186 -0.10418342 10.94564398 1.29709598 15.5625 4.375 C15.5625 5.035 15.5625 5.695 15.5625 6.375 C16.59375 6.436875 17.625 6.49875 18.6875 6.5625 C23.09158797 7.4859378 25.69655439 8.99550344 28.5625 12.375 C33.62563076 20.50180861 33.80316639 27.77547524 33.85766602 37.21948242 C33.86920803 38.61314021 33.88969533 40.00675302 33.91918945 41.40014648 C33.96193049 43.42139157 33.9754422 45.44318758 33.98828125 47.46484375 C34.00286377 48.67003662 34.01744629 49.87522949 34.0324707 51.11694336 C33.37815826 55.65294313 31.17015113 57.80714222 27.984375 60.9140625 C26.24969206 62.69640156 25.10283511 64.62602142 23.8125 66.75 C20.87762591 71.20693038 18.26207302 73.81159653 13.5625 76.375 C9.97911756 76.45833448 8.92225427 75.69586192 6.25 73.3125 C5.693125 72.673125 5.13625 72.03375 4.5625 71.375 C5.75875 70.859375 6.955 70.34375 8.1875 69.8125 C13.98808066 66.90707641 17.39668976 62.7962982 20.1875 57 C20.64125 56.13375 21.095 55.2675 21.5625 54.375 C23.5425 53.88 23.5425 53.88 25.5625 53.375 C26.2225 50.735 26.8825 48.095 27.5625 45.375 C26.2425 45.375 24.9225 45.375 23.5625 45.375 C23.47613281 44.48039062 23.38976562 43.58578125 23.30078125 42.6640625 C22.38790595 34.80830988 21.07006132 28.00631618 16.5625 21.375 C15.9025 21.045 15.2425 20.715 14.5625 20.375 C14.35625 20.931875 14.15 21.48875 13.9375 22.0625 C11.19939835 26.66748914 7.75702365 28.97641283 2.79296875 30.6328125 C1.4486988 30.93723459 0.10078955 31.22595238 -1.25 31.5 C-2.6684451 31.82474927 -4.08641966 32.15156093 -5.50390625 32.48046875 C-6.1808252 32.63306152 -6.85774414 32.7856543 -7.55517578 32.94287109 C-14.94544643 34.39489489 -14.94544643 34.39489489 -20.375 39.0625 C-22.4375 41.375 -22.4375 41.375 -24.89453125 41.6953125 C-27.42686181 41.68822906 -29.91499511 41.59162733 -32.4375 41.375 C-32.89410279 29.73162896 -32.87529725 20.88511841 -26.8125 10.625 C-19.16116492 3.37636677 -10.39810511 0.01838745 0 0 Z" fill="currentColor" transform="translate(44.4375,-0.375)"></path><path d="M0 0 C1.06368149 1.71571224 2.10028172 3.44823601 3.125 5.1875 C3.70507812 6.15042969 4.28515625 7.11335938 4.8828125 8.10546875 C6 11 6 11 5.17578125 13.7421875 C4.78777344 14.48726562 4.39976563 15.23234375 4 16 C4.13806592 20.28004363 7.23914966 22.97621153 10 26 C12.67889722 28.27712366 12.67889722 28.27712366 14.9375 27.6875 C16.22916699 27.25694434 17.51003061 26.79058346 18.76953125 26.2734375 C22.09468631 25.86580028 23.90016393 27.27509563 26.75 28.9375 C27.73484375 29.50339844 28.7196875 30.06929687 29.734375 30.65234375 C30.48203125 31.09707031 31.2296875 31.54179688 32 32 C32.2421875 37.703125 32.2421875 37.703125 30.0625 40.375 C25.23419593 42.93695726 21.12115471 42.95093125 15.91015625 41.36328125 C6.18129342 36.77966431 -4.77966431 25.81870658 -9.36328125 16.08984375 C-10.95093125 10.87884529 -10.93695726 6.76580407 -8.375 1.9375 C-5.37526172 -0.50965491 -3.76668808 -0.15995525 0 0 Z" fill="currentColor" transform="translate(19,45)"></path><path d="M0 0 C3.5 0.125 3.5 0.125 4.5 1.125 C4.625 4.625 4.625 4.625 4.5 8.125 C3.5 9.125 3.5 9.125 0 9.25 C-3.5 9.125 -3.5 9.125 -4.5 8.125 C-4.625 4.625 -4.625 4.625 -4.5 1.125 C-3.5 0.125 -3.5 0.125 0 0 Z" fill="currentColor" transform="translate(58.5,41.875)"></path><path d="M0 0 C3.5 0.125 3.5 0.125 4.5 1.125 C4.625 4.625 4.625 4.625 4.5 8.125 C3.5 9.125 3.5 9.125 0 9.25 C-3.5 9.125 -3.5 9.125 -4.5 8.125 C-4.625 4.625 -4.625 4.625 -4.5 1.125 C-3.5 0.125 -3.5 0.125 0 0 Z" fill="currentColor" transform="translate(31.5,41.875)"></path></svg>