<svg width="16" height="17" viewBox="0 0 16 17" fill="none" xmlns="http://www.w3.org/2000/svg"><path d="M12 13.0732H11.4933C10.96 13.0732 10.4533 13.2798 10.08 13.6532L8.94 14.7799C8.42 15.2932 7.57333 15.2932 7.05333 14.7799L5.91333 13.6532C5.54 13.2798 5.02667 13.0732 4.5 13.0732H4C2.89333 13.0732 2 12.1865 2 11.0932V3.81982C2 2.72649 2.89333 1.83984 4 1.83984H12C13.1067 1.83984 14 2.72649 14 3.81982V11.0932C14 12.1798 13.1067 13.0732 12 13.0732Z" stroke="black" stroke-width="1.5" stroke-miterlimit="10" stroke-linecap="round" stroke-linejoin="round"></path><path d="M4.66406 6.60718C4.66406 5.98718 5.17073 5.48047 5.79073 5.48047C6.41073 5.48047 6.9174 5.98718 6.9174 6.60718C6.9174 7.86051 5.13739 7.99384 4.74406 9.18717C4.66406 9.43384 4.87073 9.6805 5.13073 9.6805H6.9174" stroke="black" stroke-width="1.5" stroke-linecap="round" stroke-linejoin="round"></path><path d="M10.6893 9.67325V5.8666C10.6893 5.69327 10.5759 5.5399 10.4093 5.49323C10.2426 5.44657 10.0626 5.51323 9.96928 5.6599C9.48928 6.43323 8.96927 7.31324 8.51594 8.08658C8.4426 8.21324 8.4426 8.37991 8.51594 8.50658C8.58927 8.63325 8.72927 8.7132 8.88261 8.7132H11.3293" stroke="black" stroke-width="1.5" stroke-linecap="round" stroke-linejoin="round"></path></svg>