<svg width="36" height="36" viewBox="0 0 36 36" fill="none" xmlns="http://www.w3.org/2000/svg"><path d="M7.125 8.61525C7.125 7.78683 7.79658 7.11523 8.62499 7.11523H27.375C28.2035 7.11523 28.8749 7.78683 28.8749 8.61525V13.8653C28.8749 14.6937 28.2035 15.3652 27.375 15.3652H8.62499C7.79656 15.3652 7.125 14.6937 7.125 13.8653V8.61525Z" stroke="currentColor" stroke-width="2.25" stroke-linecap="round" stroke-linejoin="round"></path><path d="M7.125 22.1154C7.125 21.2868 7.79658 20.6152 8.62499 20.6152H27.375C28.2035 20.6152 28.8749 21.2868 28.8749 22.1154V27.3652C28.8749 28.1938 28.2035 28.8654 27.375 28.8654H8.62499C7.79656 28.8654 7.125 28.1938 7.125 27.3652V22.1154Z" stroke="currentColor" stroke-width="2.25" stroke-linecap="round" stroke-linejoin="round"></path><path d="M24.375 7.50977V15.0098" stroke="currentColor" stroke-width="2.25" stroke-linecap="round" stroke-linejoin="round"></path><path d="M24.375 21.0098V28.5096" stroke="currentColor" stroke-width="2.25" stroke-linecap="round" stroke-linejoin="round"></path></svg>