<svg width="16" height="16" viewBox="0 0 16 16" fill="none" xmlns="http://www.w3.org/2000/svg"><path d="M0 16L1.13085 11.8935C0.431709 10.6882 0.0649474 9.3232 0.0687679 7.92776C0.0687679 3.55513 3.6447 0 8.03438 0C10.1662 0 12.1681 0.825095 13.6695 2.32319C15.1748 3.82129 16.0038 5.81369 16 7.93156C16 12.3042 12.4241 15.8593 8.03056 15.8593H8.02674C6.6934 15.8593 5.383 15.5247 4.21776 14.8935L0 16ZM4.42024 13.4601L4.66093 13.6046C5.67717 14.2053 6.8424 14.5209 8.03056 14.5247H8.03438C11.6829 14.5247 14.6552 11.5703 14.6552 7.93536C14.6552 6.17491 13.9675 4.52091 12.7182 3.27377C11.469 2.02662 9.80324 1.34221 8.03438 1.34221C4.38586 1.3384 1.41356 4.29278 1.41356 7.92776C1.41356 9.17111 1.76122 10.384 2.42598 11.4335L2.58261 11.6844L1.91404 14.1141L4.42024 13.4601Z" fill="white"></path><path d="M0.28125 15.7222L1.37389 11.7564C0.697678 10.5967 0.342377 9.27735 0.342377 7.93134C0.346197 3.7108 3.79605 0.277344 8.03674 0.277344C10.096 0.277344 12.0253 1.07582 13.477 2.52069C14.9288 3.96556 15.7273 5.88951 15.7273 7.93514C15.7273 12.1557 12.2736 15.5891 8.03674 15.5891H8.03292C6.74543 15.5891 5.48086 15.2659 4.35766 14.6576L0.28125 15.7222Z" fill="url(#paint0_linear_41286_24096)"></path><path d="M0 16L1.13085 11.8935C0.431709 10.6882 0.0649474 9.3232 0.0687679 7.92776C0.0687679 3.55513 3.6447 0 8.03438 0C10.1662 0 12.1681 0.825095 13.6695 2.32319C15.1748 3.82129 16.0038 5.81369 16 7.93156C16 12.3042 12.4241 15.8593 8.03056 15.8593H8.02674C6.6934 15.8593 5.383 15.5247 4.21776 14.8935L0 16ZM4.42024 13.4601L4.66093 13.6046C5.67717 14.2053 6.8424 14.5209 8.03056 14.5247H8.03438C11.6829 14.5247 14.6552 11.5703 14.6552 7.93536C14.6552 6.17491 13.9675 4.52091 12.7182 3.27377C11.469 2.02662 9.80324 1.34221 8.03438 1.34221C4.38586 1.3384 1.41356 4.29278 1.41356 7.92776C1.41356 9.17111 1.76122 10.384 2.42598 11.4335L2.58261 11.6844L1.91404 14.1141L4.42024 13.4601Z" fill="url(#paint1_linear_41286_24096)"></path><path fill-rule="evenodd" clip-rule="evenodd" d="M6.03977 4.61163C5.89077 4.28083 5.73413 4.27323 5.59278 4.26943C5.47817 4.26563 5.34445 4.26562 5.21073 4.26562C5.07702 4.26562 4.86308 4.31505 4.67969 4.51277C4.49631 4.71049 3.98438 5.18958 3.98438 6.16677C3.98438 7.14015 4.6988 8.08312 4.79813 8.2162C4.89746 8.34928 6.1773 10.4139 8.19832 11.2086C9.87931 11.8702 10.2231 11.7371 10.5861 11.7029C10.949 11.6687 11.7628 11.2238 11.9309 10.7599C12.0952 10.296 12.0952 9.90061 12.0455 9.81696C11.9958 9.73331 11.8621 9.68388 11.6635 9.58502C11.4648 9.48616 10.4868 9.00707 10.3034 8.93863C10.12 8.87399 9.98628 8.83977 9.85639 9.03749C9.72267 9.23521 9.34063 9.68007 9.22601 9.81315C9.1114 9.94623 8.99297 9.96144 8.7943 9.86258C8.59564 9.76372 7.95381 9.5546 7.19354 8.87779C6.60137 8.35308 6.20023 7.70289 6.08561 7.50517C5.971 7.30745 6.07415 7.20099 6.17348 7.10213C6.26135 7.01468 6.37215 6.87019 6.47148 6.75612C6.57081 6.64205 6.60519 6.5584 6.67014 6.42532C6.73509 6.29224 6.70453 6.17817 6.65486 6.07931C6.60519 5.98426 6.21551 5.00327 6.03977 4.61163Z" fill="white"></path><defs><linearGradient id="paint0_linear_41286_24096" x1="8.00386" y1="15.7214" x2="8.00386" y2="0.276803" gradientUnits="userSpaceOnUse"><stop stop-color="#009078"></stop><stop offset="1" stop-color="#013930"></stop></linearGradient><linearGradient id="paint1_linear_41286_24096" x1="8.00156" y1="15.9985" x2="8.00156" y2="0" gradientUnits="userSpaceOnUse"><stop stop-color="#F9F9F9"></stop><stop offset="1" stop-color="white"></stop></linearGradient></defs></svg>