<svg version="1.1" xmlns="http://www.w3.org/2000/svg" width="90" height="90" viewBox="0 0 90 90" fill="none"><path d="M0 0 C0.7027002 -0.00191345 1.40540039 -0.0038269 2.12939453 -0.00579834 C3.61556354 -0.00715975 5.10174445 -0.00346632 6.58789062 0.00488281 C8.86615646 0.01558346 11.14363377 0.00498661 13.421875 -0.0078125 C14.86458508 -0.0064909 16.30729466 -0.00392849 17.75 0 C19.06742188 0.00225586 20.38484375 0.00451172 21.7421875 0.00683594 C24.875 0.265625 24.875 0.265625 26.875 2.265625 C28.04003785 5.56967753 27.99583431 8.74849398 27.98852539 12.22753906 C27.98844986 13.42848206 27.98837433 14.62942505 27.98829651 15.86676025 C27.98313522 17.15854187 27.97797394 18.45032349 27.97265625 19.78125 C27.97079017 21.12074735 27.96936716 22.46024538 27.96836853 23.79974365 C27.96455835 27.31784972 27.95474091 30.83591421 27.94366455 34.35400391 C27.93341817 37.94693439 27.928864 41.53987161 27.92382812 45.1328125 C27.91311725 52.17710029 27.89605887 59.22135993 27.875 66.265625 C27.215 66.265625 26.555 66.265625 25.875 66.265625 C25.606875 65.62625 25.33875 64.986875 25.0625 64.328125 C23.98832248 61.93430814 23.98832248 61.93430814 20.875 61.265625 C18.76136296 61.13819382 16.64435617 61.06378779 14.52734375 61.01953125 C13.28275391 60.98666016 12.03816406 60.95378906 10.75585938 60.91992188 C8.12313684 60.85863512 5.49031805 60.8013549 2.85742188 60.74804688 C1.61412109 60.71388672 0.37082031 60.67972656 -0.91015625 60.64453125 C-2.62537476 60.60694702 -2.62537476 60.60694702 -4.37524414 60.56860352 C-7.125 60.265625 -7.125 60.265625 -9.125 58.265625 C-9.37896729 55.91259766 -9.37896729 55.91259766 -9.38378906 52.9296875 C-9.39009338 51.81513184 -9.39639771 50.70057617 -9.40289307 49.55224609 C-9.3988446 48.34391113 -9.39479614 47.13557617 -9.390625 45.890625 C-9.39253845 44.65521973 -9.3944519 43.41981445 -9.39642334 42.14697266 C-9.3981361 38.85971093 -9.39006699 35.57263713 -9.37890625 32.28540039 C-9.37500397 30.2676797 -9.37889171 28.25013299 -9.38574219 26.23242188 C-9.39806004 22.36840672 -9.39660978 18.50465072 -9.390625 14.640625 C-9.39467346 13.43229004 -9.39872192 12.22395508 -9.40289307 10.97900391 C-9.39658875 9.86444824 -9.39028442 8.74989258 -9.38378906 7.6015625 C-9.38219788 6.61720215 -9.38060669 5.6328418 -9.37896729 4.61865234 C-8.77940496 -0.93634087 -4.56701747 0.00782024 0 0 Z M0.875 13.265625 C1.35824819 18.42027234 4.06110761 22.08112819 6.875 26.265625 C10.43550965 25.96043846 11.87535037 25.26533692 14.6875 22.953125 C17.2958476 20.32612184 17.2958476 20.32612184 16.875 16.265625 C13.50037285 16.81286183 11.79265 17.320525 8.875 19.265625 C8.00875 17.780625 8.00875 17.780625 7.125 16.265625 C6.01125 14.780625 6.01125 14.780625 4.875 13.265625 C3.555 13.265625 2.235 13.265625 0.875 13.265625 Z M0.875 34.265625 C0.875 35.585625 0.875 36.905625 0.875 38.265625 C3.60577876 39.63101438 5.83060367 39.39794326 8.875 39.390625 C9.9475 39.39320312 11.02 39.39578125 12.125 39.3984375 C14.83682052 39.4528591 14.83682052 39.4528591 16.875 38.265625 C16.875 36.945625 16.875 35.625625 16.875 34.265625 C14.14422124 32.90023562 11.91939633 33.13330674 8.875 33.140625 C7.8025 33.13804688 6.73 33.13546875 5.625 33.1328125 C2.91317948 33.0783909 2.91317948 33.0783909 0.875 34.265625 Z M0.875 46.265625 C0.875 47.585625 0.875 48.905625 0.875 50.265625 C3.60577876 51.63101438 5.83060367 51.39794326 8.875 51.390625 C9.9475 51.39320312 11.02 51.39578125 12.125 51.3984375 C14.83682052 51.4528591 14.83682052 51.4528591 16.875 50.265625 C16.875 48.945625 16.875 47.625625 16.875 46.265625 C14.14422124 44.90023562 11.91939633 45.13330674 8.875 45.140625 C7.8025 45.13804688 6.73 45.13546875 5.625 45.1328125 C2.91317948 45.0783909 2.91317948 45.0783909 0.875 46.265625 Z" fill="currentColor" transform="translate(15.125,14.734375)"></path><path d="M0 0 C0.7027002 -0.00191345 1.40540039 -0.0038269 2.12939453 -0.00579834 C3.61556354 -0.00715975 5.10174445 -0.00346632 6.58789062 0.00488281 C8.86615646 0.01558346 11.14363377 0.00498661 13.421875 -0.0078125 C14.86458508 -0.0064909 16.30729466 -0.00392849 17.75 0 C19.06742188 0.00225586 20.38484375 0.00451172 21.7421875 0.00683594 C24.875 0.265625 24.875 0.265625 26.875 2.265625 C27.86897558 5.21273242 28.00602835 7.95162275 28.02026367 11.04663086 C28.02664352 11.99118637 28.03302338 12.93574188 28.03959656 13.90892029 C28.04070938 14.92253128 28.0418222 15.93614227 28.04296875 16.98046875 C28.04796135 18.55230675 28.04796135 18.55230675 28.05305481 20.15589905 C28.0581145 22.37077394 28.06046343 24.58565644 28.06030273 26.80053711 C28.06248947 30.18681396 28.0806562 33.57276514 28.09960938 36.95898438 C28.10254344 39.11197805 28.10452815 41.26497328 28.10546875 43.41796875 C28.11265427 44.42955551 28.11983978 45.44114227 28.12724304 46.48338318 C28.12416641 47.43109085 28.12108978 48.37879852 28.11791992 49.35522461 C28.11934494 50.18477158 28.12076996 51.01431854 28.12223816 51.8690033 C27.80840721 54.91114719 27.09881553 58.04180947 24.875 60.265625 C22.85043468 60.3997409 20.82152644 60.46922763 18.79296875 60.51171875 C17.55095703 60.54458984 16.30894531 60.57746094 15.02929688 60.61132812 C12.39656594 60.67225297 9.7637491 60.72957745 7.13085938 60.78320312 C5.26204102 60.83444336 5.26204102 60.83444336 3.35546875 60.88671875 C1.63686646 60.92430298 1.63686646 60.92430298 -0.11645508 60.96264648 C-3.04449953 61.25751812 -4.70773818 61.62998453 -7.125 63.265625 C-7.785 64.255625 -8.445 65.245625 -9.125 66.265625 C-9.17128625 57.95561708 -9.2068502 49.64566279 -9.22862434 41.33555794 C-9.23907343 37.47707703 -9.253253 33.61868415 -9.27587891 29.76025391 C-9.2975674 26.03850308 -9.30956014 22.31683706 -9.31475449 18.59502792 C-9.31845745 17.17321309 -9.32568819 15.75140303 -9.33646011 14.32962418 C-9.35092119 12.34235386 -9.35181646 10.35499869 -9.35205078 8.36767578 C-9.356492 7.23516388 -9.36093323 6.10265198 -9.36550903 4.93582153 C-8.84112743 -0.88600533 -4.86868954 0.0083368 0 0 Z M1.875 9.265625 C0.885 10.750625 0.885 10.750625 -0.125 12.265625 C1.195 13.915625 2.515 15.565625 3.875 17.265625 C2.54166667 19.93229167 1.20833333 22.59895833 -0.125 25.265625 C1.855 26.255625 1.855 26.255625 3.875 27.265625 C5.195 25.945625 6.515 24.625625 7.875 23.265625 C10.54166667 24.59895833 13.20833333 25.93229167 15.875 27.265625 C16.535 25.945625 17.195 24.625625 17.875 23.265625 C16.555 21.945625 15.235 20.625625 13.875 19.265625 C15.20833333 16.59895833 16.54166667 13.93229167 17.875 11.265625 C16.555 10.605625 15.235 9.945625 13.875 9.265625 C12.555 10.585625 11.235 11.905625 9.875 13.265625 C7.20833333 11.93229167 4.54166667 10.59895833 1.875 9.265625 Z M0.875 34.265625 C0.875 35.585625 0.875 36.905625 0.875 38.265625 C3.60577876 39.63101438 5.83060367 39.39794326 8.875 39.390625 C9.9475 39.39320312 11.02 39.39578125 12.125 39.3984375 C14.83682052 39.4528591 14.83682052 39.4528591 16.875 38.265625 C16.875 36.945625 16.875 35.625625 16.875 34.265625 C14.14422124 32.90023562 11.91939633 33.13330674 8.875 33.140625 C7.8025 33.13804688 6.73 33.13546875 5.625 33.1328125 C2.91317948 33.0783909 2.91317948 33.0783909 0.875 34.265625 Z M0.875 46.265625 C0.875 47.585625 0.875 48.905625 0.875 50.265625 C3.60577876 51.63101438 5.83060367 51.39794326 8.875 51.390625 C9.9475 51.39320312 11.02 51.39578125 12.125 51.3984375 C14.83682052 51.4528591 14.83682052 51.4528591 16.875 50.265625 C16.875 48.945625 16.875 47.625625 16.875 46.265625 C14.14422124 44.90023562 11.91939633 45.13330674 8.875 45.140625 C7.8025 45.13804688 6.73 45.13546875 5.625 45.1328125 C2.91317948 45.0783909 2.91317948 45.0783909 0.875 46.265625 Z" fill="currentColor" transform="translate(57.125,14.734375)"></path></svg>