<svg version="1.1" xmlns="http://www.w3.org/2000/svg" width="90" height="90" viewBox="0 0 90 90" fill="none"><path d="M0 0 C0.87430664 -0.00630432 1.74861328 -0.01260864 2.64941406 -0.019104 C4.06818848 -0.01303131 4.06818848 -0.01303131 5.515625 -0.00683594 C6.48467773 -0.00874939 7.45373047 -0.01066284 8.45214844 -0.01263428 C10.50325785 -0.01399673 12.55437586 -0.01029612 14.60546875 -0.00195312 C17.75280039 0.00874547 20.8995612 -0.00184647 24.046875 -0.01464844 C26.0364596 -0.01332685 28.02604384 -0.01076448 30.015625 -0.00683594 C30.96147461 -0.0108844 31.90732422 -0.01493286 32.88183594 -0.019104 C33.75614258 -0.01279968 34.63044922 -0.00649536 35.53125 0 C36.68802246 0.00238678 36.68802246 0.00238678 37.86816406 0.00482178 C39.765625 0.25878906 39.765625 0.25878906 41.765625 2.25878906 C42.01959229 4.3840332 42.01959229 4.3840332 42.02441406 7.04394531 C42.03071838 8.03837646 42.03702271 9.03280762 42.04351807 10.05737305 C42.0394696 11.13446533 42.03542114 12.21155762 42.03125 13.32128906 C42.03412018 14.97463257 42.03412018 14.97463257 42.03704834 16.66137695 C42.03841112 18.99495675 42.03470822 21.32854409 42.02636719 23.66210938 C42.01566921 27.24398753 42.02625958 30.8253641 42.0390625 34.40722656 C42.03774092 36.67024851 42.03517857 38.93327014 42.03125 41.19628906 C42.03529846 42.27338135 42.03934692 43.35047363 42.04351807 44.46020508 C42.03721375 45.45463623 42.03090942 46.44906738 42.02441406 47.47363281 C42.02282288 48.35140381 42.02123169 49.2291748 42.01959229 50.13354492 C41.765625 52.25878906 41.765625 52.25878906 39.765625 54.25878906 C37.86816406 54.51275635 37.86816406 54.51275635 35.53125 54.51757812 C34.65694336 54.52388245 33.78263672 54.53018677 32.88183594 54.53668213 C31.46306152 54.53060944 31.46306152 54.53060944 30.015625 54.52441406 C29.04657227 54.52632751 28.07751953 54.52824097 27.07910156 54.5302124 C25.02799215 54.53157485 22.97687414 54.52787424 20.92578125 54.51953125 C17.77844961 54.50883266 14.6316888 54.5194246 11.484375 54.53222656 C9.4947904 54.53090498 7.50520616 54.52834261 5.515625 54.52441406 C4.09685059 54.53048676 4.09685059 54.53048676 2.64941406 54.53668213 C1.77510742 54.53037781 0.90080078 54.52407349 0 54.51757812 C-0.77118164 54.51598694 -1.54236328 54.51439575 -2.33691406 54.51275635 C-4.234375 54.25878906 -4.234375 54.25878906 -6.234375 52.25878906 C-6.48834229 50.13354492 -6.48834229 50.13354492 -6.49316406 47.47363281 C-6.49946838 46.47920166 -6.50577271 45.48477051 -6.51226807 44.46020508 C-6.5082196 43.38311279 -6.50417114 42.30602051 -6.5 41.19628906 C-6.50191345 40.09406006 -6.5038269 38.99183105 -6.50579834 37.85620117 C-6.50716112 35.52262138 -6.50345822 33.18903403 -6.49511719 30.85546875 C-6.48441921 27.27359059 -6.49500958 23.69221403 -6.5078125 20.11035156 C-6.50649092 17.84732962 -6.50392857 15.58430798 -6.5 13.32128906 C-6.50404846 12.24419678 -6.50809692 11.16710449 -6.51226807 10.05737305 C-6.50596375 9.06294189 -6.49965942 8.06851074 -6.49316406 7.04394531 C-6.49157288 6.16617432 -6.48998169 5.28840332 -6.48834229 4.3840332 C-5.98814467 0.19828919 -3.65596594 0.00754339 0 0 Z M3.765625 13.25878906 C3.765625 14.57878906 3.765625 15.89878906 3.765625 17.25878906 C6.35286489 18.55240901 8.24675503 18.38827855 11.140625 18.39160156 C12.74164063 18.39353516 12.74164063 18.39353516 14.375 18.39550781 C15.49390625 18.39164063 16.6128125 18.38777344 17.765625 18.38378906 C18.88453125 18.38765625 20.0034375 18.39152344 21.15625 18.39550781 C22.22359375 18.39421875 23.2909375 18.39292969 24.390625 18.39160156 C25.37289062 18.39047363 26.35515625 18.3893457 27.3671875 18.38818359 C29.77970394 18.41774141 29.77970394 18.41774141 31.765625 17.25878906 C31.765625 15.93878906 31.765625 14.61878906 31.765625 13.25878906 C29.17838511 11.96516912 27.28449497 12.12929958 24.390625 12.12597656 C22.78960937 12.12404297 22.78960937 12.12404297 21.15625 12.12207031 C20.03734375 12.1259375 18.9184375 12.12980469 17.765625 12.13378906 C16.64671875 12.12992188 15.5278125 12.12605469 14.375 12.12207031 C13.30765625 12.12335937 12.2403125 12.12464844 11.140625 12.12597656 C9.66722656 12.12766846 9.66722656 12.12766846 8.1640625 12.12939453 C5.75154606 12.09983672 5.75154606 12.09983672 3.765625 13.25878906 Z M3.765625 25.25878906 C3.765625 26.57878906 3.765625 27.89878906 3.765625 29.25878906 C6.35286489 30.55240901 8.24675503 30.38827855 11.140625 30.39160156 C12.74164063 30.39353516 12.74164063 30.39353516 14.375 30.39550781 C15.49390625 30.39164063 16.6128125 30.38777344 17.765625 30.38378906 C18.88453125 30.38765625 20.0034375 30.39152344 21.15625 30.39550781 C22.22359375 30.39421875 23.2909375 30.39292969 24.390625 30.39160156 C25.37289062 30.39047363 26.35515625 30.3893457 27.3671875 30.38818359 C29.77970394 30.41774141 29.77970394 30.41774141 31.765625 29.25878906 C31.765625 27.93878906 31.765625 26.61878906 31.765625 25.25878906 C29.17838511 23.96516912 27.28449497 24.12929958 24.390625 24.12597656 C22.78960937 24.12404297 22.78960937 24.12404297 21.15625 24.12207031 C20.03734375 24.1259375 18.9184375 24.12980469 17.765625 24.13378906 C16.64671875 24.12992188 15.5278125 24.12605469 14.375 24.12207031 C13.30765625 24.12335937 12.2403125 24.12464844 11.140625 24.12597656 C9.66722656 24.12766846 9.66722656 24.12766846 8.1640625 24.12939453 C5.75154606 24.09983672 5.75154606 24.09983672 3.765625 25.25878906 Z M3.765625 37.25878906 C3.765625 38.57878906 3.765625 39.89878906 3.765625 41.25878906 C6.35286489 42.55240901 8.24675503 42.38827855 11.140625 42.39160156 C12.74164063 42.39353516 12.74164063 42.39353516 14.375 42.39550781 C15.49390625 42.39164063 16.6128125 42.38777344 17.765625 42.38378906 C18.88453125 42.38765625 20.0034375 42.39152344 21.15625 42.39550781 C22.22359375 42.39421875 23.2909375 42.39292969 24.390625 42.39160156 C25.37289062 42.39047363 26.35515625 42.3893457 27.3671875 42.38818359 C29.77970394 42.41774141 29.77970394 42.41774141 31.765625 41.25878906 C31.765625 39.93878906 31.765625 38.61878906 31.765625 37.25878906 C29.17838511 35.96516912 27.28449497 36.12929958 24.390625 36.12597656 C22.78960937 36.12404297 22.78960937 36.12404297 21.15625 36.12207031 C20.03734375 36.1259375 18.9184375 36.12980469 17.765625 36.13378906 C16.64671875 36.12992188 15.5278125 36.12605469 14.375 36.12207031 C13.30765625 36.12335937 12.2403125 36.12464844 11.140625 36.12597656 C9.66722656 36.12766846 9.66722656 36.12766846 8.1640625 36.12939453 C5.75154606 36.09983672 5.75154606 36.09983672 3.765625 37.25878906 Z" fill="currentColor" transform="translate(33.234375,23.7412109375)"></path><path d="M0 0 C0.87430664 -0.00630432 1.74861328 -0.01260864 2.64941406 -0.019104 C4.06818848 -0.01303131 4.06818848 -0.01303131 5.515625 -0.00683594 C6.48467773 -0.00874939 7.45373047 -0.01066284 8.45214844 -0.01263428 C10.50325785 -0.01399673 12.55437586 -0.01029612 14.60546875 -0.00195312 C17.75280039 0.00874547 20.8995612 -0.00184647 24.046875 -0.01464844 C26.0364596 -0.01332685 28.02604384 -0.01076448 30.015625 -0.00683594 C30.96147461 -0.0108844 31.90732422 -0.01493286 32.88183594 -0.019104 C33.75614258 -0.01279968 34.63044922 -0.00649536 35.53125 0 C36.68802246 0.00238678 36.68802246 0.00238678 37.86816406 0.00482178 C39.765625 0.25878906 39.765625 0.25878906 41.765625 2.25878906 C41.765625 3.57878906 41.765625 4.89878906 41.765625 6.25878906 C40.45742798 6.28066284 40.45742798 6.28066284 39.12280273 6.30297852 C35.85902504 6.36436278 32.59604543 6.43857295 29.33276367 6.52124023 C27.9256472 6.554309 26.51840384 6.5823961 25.11108398 6.60522461 C23.07741676 6.63910705 21.04489365 6.69143124 19.01171875 6.74707031 C17.18145142 6.78634644 17.18145142 6.78634644 15.31420898 6.82641602 C10.51654052 7.41098229 6.34211137 8.62975315 2.890625 12.19628906 C0.41978442 16.72616346 0.55935226 21.47121369 0.44921875 26.52441406 C0.42843765 27.31781189 0.40765656 28.11120972 0.38624573 28.9286499 C0.32102527 31.4552775 0.26199356 33.98200628 0.203125 36.50878906 C0.1599136 38.22494523 0.11629847 39.94109128 0.07226562 41.65722656 C-0.03462783 45.85764453 -0.13597229 50.05816396 -0.234375 54.25878906 C-5.109375 53.38378906 -5.109375 53.38378906 -6.234375 52.25878906 C-6.33804527 50.70427918 -6.37289022 49.14510652 -6.37963867 47.5871582 C-6.38601852 46.59265152 -6.39239838 45.59814484 -6.39897156 44.57350159 C-6.40008438 43.49124802 -6.4011972 42.40899445 -6.40234375 41.29394531 C-6.40567215 40.19030136 -6.40900055 39.08665741 -6.41242981 37.9495697 C-6.41750386 35.61002012 -6.41983799 33.27046328 -6.41967773 30.9309082 C-6.42186348 27.34021141 -6.44001234 23.74982202 -6.45898438 20.15917969 C-6.46191827 17.89160262 -6.46390309 15.62402408 -6.46484375 13.35644531 C-6.47202927 12.27621597 -6.47921478 11.19598663 -6.48661804 10.08302307 C-6.48354141 9.08536423 -6.48046478 8.08770538 -6.47729492 7.05981445 C-6.47871994 6.17902725 -6.48014496 5.29824005 -6.48161316 4.39076233 C-5.99543328 0.1983573 -3.65805451 0.0075477 0 0 Z" fill="currentColor" transform="translate(21.234375,11.7412109375)"></path></svg>