<svg width="16" height="16" viewBox="0 0 16 16" fill="none" xmlns="http://www.w3.org/2000/svg"><path d="M1.83073 13.4987H14.1641C14.8084 13.4987 15.3307 12.9764 15.3307 12.332V3.84635C15.3307 3.20202 14.8084 2.67969 14.1641 2.67969H1.83073C1.1864 2.67969 0.664062 3.20202 0.664062 3.84635V12.332C0.664062 12.9764 1.1864 13.4987 1.83073 13.4987Z" fill="#E0E0E0"></path><path d="M14.8271 4.25284L7.99975 9.25418L1.17242 4.25251C1.17242 4.25251 1.14075 4.23051 1.09375 4.19184L8.66642 13.4998H14.1664C14.8107 13.4998 15.3331 12.9775 15.3331 12.3332V3.81351C15.3331 3.77951 15.3261 3.74784 15.3231 3.71484C15.2717 4.08718 14.8271 4.25284 14.8271 4.25284Z" fill="#D9D9D9"></path><path d="M2.25 13.4987H14.1683C14.8127 13.4987 15.335 12.9764 15.335 12.332V3.83203L2.25 13.4987Z" fill="#EEEEEE"></path><path d="M8.58248 13.4987H14.1675C14.8118 13.4987 15.3341 12.9764 15.3341 12.332V3.83203L6.25781 10.5374L8.58248 13.4987Z" fill="#E0E0E0"></path><path d="M1.1984 4.25141C1.1984 4.25141 0.753729 3.93874 0.702396 3.56641C0.699729 3.59941 0.692396 3.63141 0.692396 3.66507L0.664062 3.82274V9.75574V12.3317C0.664062 12.9761 1.1864 13.4984 1.83073 13.4984H2.33073V5.08074L1.1984 4.25141Z" fill="#013930"></path><path d="M15.3207 3.71484C15.2694 4.08718 14.8247 4.25284 14.8247 4.25284L13.6641 5.10318V13.4998H14.1641C14.8084 13.4998 15.3307 12.9775 15.3307 12.3332V9.75684V3.81351C15.3307 3.77984 15.3237 3.74784 15.3207 3.71484Z" fill="#013930"></path><path d="M1.1374 4.43661L8.01173 9.42761L14.8857 4.43661C14.8857 4.43661 15.1981 4.21628 15.3307 3.92628V3.85028C15.3267 3.18494 14.8077 2.68028 14.1641 2.68361H1.83073C1.1864 2.68361 0.664062 3.20594 0.664062 3.85028V3.85328C0.771729 4.17861 1.1374 4.43661 1.1374 4.43661Z" fill="#BCBCBC"></path><path d="M14.1641 2.66797H7.9974H1.83073C1.1864 2.66797 0.664062 3.17997 0.664062 3.83464C0.664062 4.23664 1.17006 4.5873 1.17006 4.5873L7.9974 9.41997L14.8247 4.58764C14.8247 4.58764 15.3307 4.23664 15.3307 3.83497C15.3307 3.17997 14.8084 2.66797 14.1641 2.66797Z" fill="#F5F5F5"></path><path d="M14.4127 2.69531L7.9974 7.16798L1.58206 2.69531C1.0574 2.80765 0.664062 3.26698 0.664062 3.83465C0.664062 4.23665 1.17006 4.58731 1.17006 4.58731L7.9974 9.41998L14.8247 4.58765C14.8247 4.58765 15.3307 4.23665 15.3307 3.83498C15.3307 3.26698 14.9374 2.80765 14.4127 2.69531Z" fill="#013930"></path></svg>