<svg width="18" height="18" viewBox="0 0 18 18" fill="none" xmlns="http://www.w3.org/2000/svg"><path d="M16.3581 2.9554C15.2031 5.8354 12.3081 9.7504 9.88563 11.6929L8.40813 12.8779C8.22063 13.0129 8.03313 13.1329 7.82313 13.2154C7.82313 13.0804 7.81563 12.9304 7.79313 12.7879C7.71063 12.1579 7.42562 11.5729 6.92312 11.0704C6.41312 10.5604 5.79063 10.2604 5.15312 10.1779C5.00312 10.1704 4.85313 10.1554 4.70312 10.1704C4.78563 9.9379 4.91313 9.7204 5.07063 9.5404L6.24062 8.0629C8.17563 5.6404 12.1056 2.7304 14.9781 1.5829C15.4206 1.4179 15.8481 1.5379 16.1181 1.8154C16.4031 2.0929 16.5381 2.5204 16.3581 2.9554Z" stroke="black" stroke-width="1.5" stroke-linecap="round" stroke-linejoin="round"></path><path d="M7.82588 13.2141C7.82588 14.0391 7.51088 14.8266 6.91838 15.4266C6.46088 15.8841 5.83838 16.1991 5.09588 16.2966L3.25088 16.4991C2.24588 16.6116 1.38338 15.7566 1.50338 14.7366L1.70588 12.8916C1.88588 11.2491 3.25838 10.1991 4.71338 10.1691C4.86338 10.1616 5.02088 10.1691 5.16338 10.1766C5.80088 10.2591 6.42338 10.5516 6.93338 11.0691C7.43588 11.5716 7.72088 12.1566 7.80338 12.7866C7.81088 12.9291 7.82588 13.0716 7.82588 13.2141Z" stroke="black" stroke-width="1.5" stroke-linecap="round" stroke-linejoin="round"></path><path d="M10.6803 10.8522C10.6803 8.89469 9.09031 7.30469 7.13281 7.30469" stroke="black" stroke-width="1.5" stroke-linecap="round" stroke-linejoin="round"></path></svg>