<svg version="1.1" xmlns="http://www.w3.org/2000/svg" width="90" height="90" viewBox="0 0 90 90" fill="none"><path d="M0 0 C1.18867676 0.00918457 1.18867676 0.00918457 2.40136719 0.01855469 C12.51714535 0.28792199 20.38242797 3.9756474 27.8125 10.875 C37.39536813 21.21441035 39.67918213 30.07012641 39.47265625 43.9296875 C39.04636423 54.27637327 33.64847928 62.52244604 26.1875 69.4375 C16.34458414 78.21631685 6.05161745 79.14934459 -6.66308594 78.62548828 C-17.13347063 77.70974587 -25.17560892 70.63643848 -31.875 63.125 C-37.35497638 55.52374244 -39.00260632 48.84114027 -39.0625 39.625 C-39.083125 38.84318359 -39.10375 38.06136719 -39.125 37.25585938 C-39.1608878 31.88614678 -38.24452127 28.23114192 -35.8125 23.4375 C-33.30859375 24.84375 -33.30859375 24.84375 -30.8125 27.4375 C-30.31230514 30.62266668 -30.63842939 33.73344675 -30.875 36.9375 C-31.23372047 46.90544515 -29.67319253 53.8634983 -22.94921875 61.57421875 C-21.00251057 63.43510011 -19.05216058 64.94577802 -16.8125 66.4375 C-16.16925781 66.86933594 -15.52601562 67.30117187 -14.86328125 67.74609375 C-7.92619586 71.56479409 0.50171294 71.66493166 8.1875 70.4375 C16.34092849 67.9103061 22.46193297 63.53243212 27.1875 56.4375 C27.61933594 55.79425781 28.05117187 55.15101562 28.49609375 54.48828125 C32.31479409 47.55119586 32.41493166 39.12328706 31.1875 31.4375 C28.42453899 22.52342142 23.3904474 15.94330632 15.28295898 11.36108398 C8.43752247 7.91155198 2.69718244 8.1714557 -4.79101562 8.68164062 C-7.21905559 8.77935218 -9.4154553 8.84259431 -11.8125 8.4375 C-14.41796875 5.93359375 -14.41796875 5.93359375 -15.8125 3.4375 C-10.36749191 0.71860192 -6.05892903 -0.07962137 0 0 Z" fill="currentColor" transform="translate(44.8125,5.5625)"></path><path d="M0 0 C1.93046675 0.94849522 3.608616 1.97417132 5.33984375 3.24609375 C6.22671875 3.82359375 7.11359375 4.40109375 8.02734375 4.99609375 C13.48839398 10.30954803 16.42966929 16.15612836 16.63208008 23.79370117 C16.71563354 32.61714768 15.84270111 38.17520547 10.02734375 44.93359375 C1.66609146 52.12815968 -3.76581087 53.7322634 -14.94921875 53.53125 C-19.71252309 53.16522767 -22.8213616 52.0031333 -26.66015625 49.24609375 C-27.99046875 48.37984375 -27.99046875 48.37984375 -29.34765625 47.49609375 C-34.15729541 42.81644484 -37.55088608 37.30887246 -37.79296875 30.5234375 C-37.79562066 29.076823 -37.7928305 27.63019032 -37.78515625 26.18359375 C-37.78902344 25.45076172 -37.79289062 24.71792969 -37.796875 23.96289062 C-37.78684116 18.49946357 -37.78684116 18.49946357 -36.66015625 16.24609375 C-34.35015625 16.90609375 -32.04015625 17.56609375 -29.66015625 18.24609375 C-29.71816406 19.16390625 -29.77617187 20.08171875 -29.8359375 21.02734375 C-30.26357749 30.43046883 -30.26357749 30.43046883 -26.2578125 38.625 C-21.50901063 43.44346645 -17.51687683 45.54252454 -10.66015625 45.87109375 C-3.82249 45.54343761 0.28483454 43.48037 4.9375 38.5546875 C8.5512559 33.7329909 9.10077862 29.08283976 8.81640625 23.1484375 C7.81390397 17.04303427 4.74369075 12.98382187 -0.09765625 9.24609375 C-5.7686112 5.9790118 -12.34364153 6.84687583 -18.66015625 7.24609375 C-19.32015625 4.93609375 -19.98015625 2.62609375 -20.66015625 0.24609375 C-15.32275731 -2.42260572 -5.69104454 -1.61288046 0 0 Z" fill="currentColor" transform="translate(55.66015625,18.75390625)"></path><path d="M0 0 C2.875 -0.125 2.875 -0.125 6 0 C6.66 0.66 7.32 1.32 8 2 C8.33 1.34 8.66 0.68 9 0 C13.79506857 0.14530511 16.20749642 2.63736082 19.546875 5.72265625 C21 8 21 8 21.171875 11.69921875 C21.70890181 17.70877135 26.26542819 20.89852354 30.5 24.75 C32.07933847 26.21707532 33.65255797 27.6907732 35.21875 29.171875 C36.2696582 30.1323877 36.2696582 30.1323877 37.34179688 31.11230469 C39.11683015 33.13299922 39.75223705 34.33446043 40 37 C38.5625 38.75 38.5625 38.75 37 40 C33.20217964 38.70871655 30.98184119 37.30187613 28.29296875 34.33984375 C27.62330078 33.62892578 26.95363281 32.91800781 26.26367188 32.18554688 C24.88298352 30.69055882 23.51050436 29.18794598 22.14648438 27.67773438 C17.36202386 22.63688171 14.87127832 21.44147073 8 21 C5.46875 19.29296875 5.46875 19.29296875 3.5 17.1875 C2.8296875 16.50042969 2.159375 15.81335937 1.46875 15.10546875 C0 13 0 13 0 9 C0.66 8.67 1.32 8.34 2 8 C1.2265625 6.8553125 1.2265625 6.8553125 0.4375 5.6875 C-0.036875 4.800625 -0.51125 3.91375 -1 3 C-0.67 2.01 -0.34 1.02 0 0 Z" fill="currentColor" transform="translate(9,9)"></path><path d="M0 0 C4.71190102 -0.37695208 8.07370593 -0.46314703 12.375 1.6875 C15.83262218 4.7335005 17.74382697 7.28525619 18.43359375 11.90234375 C18.44150672 18.05071801 18.4465054 22.31314296 14 27 C8.55860924 30.88937897 3.48149391 30.79042609 -3 30 C-7.45531067 27.88958968 -10.15810959 25.60472604 -12 21 C-12.22869139 17.98127368 -12.17766109 15.02023846 -12 12 C-10.91481889 12.91447846 -9.83195262 13.83170407 -8.75 14.75 C-8.10417969 15.29398438 -7.45835938 15.83796875 -6.79296875 16.3984375 C-5 18 -5 18 -3.0625 20.375 C0.27570341 23.00509965 2.82933437 22.46340729 7 22 C9.16666667 21.16666667 9.16666667 21.16666667 10 19 C10.79017362 15.53539261 11.07700777 14.26929261 10 11 C7.58289333 8.07247464 4.99462758 5.55761259 2.1875 3.00390625 C1.465625 2.34261719 0.74375 1.68132813 0 1 C0 0.67 0 0.34 0 0 Z" fill="currentColor" transform="translate(42,30)"></path></svg>