<svg width="24" height="24" viewBox="0 0 24 24" fill="none" xmlns="http://www.w3.org/2000/svg"><path opacity="0.8" d="M12.9031 2.51814L12.8731 2.58814L9.97313 9.31814H7.12313C6.44313 9.31814 5.80313 9.44814 5.20312 9.70814L6.95312 5.52814L6.99312 5.43814L7.05313 5.27814C7.08313 5.20814 7.10313 5.14814 7.13313 5.09814C8.44313 2.06814 9.92312 1.37814 12.9031 2.51814Z" fill="currentColor"></path><path d="M18.2888 9.51953C17.8388 9.38953 17.3687 9.31953 16.8787 9.31953H9.96875L12.8687 2.58953L12.8987 2.51953C13.0387 2.56953 13.1887 2.63953 13.3387 2.68953L15.5487 3.61953C16.7787 4.12953 17.6388 4.65953 18.1687 5.29953C18.2587 5.41953 18.3387 5.52953 18.4187 5.65953C18.5087 5.79953 18.5788 5.93953 18.6188 6.08953C18.6588 6.17953 18.6887 6.25953 18.7087 6.34953C18.9687 7.19953 18.8088 8.22953 18.2888 9.51953Z" fill="currentColor"></path><path opacity="0.4" d="M21.7622 14.2003V16.1503C21.7622 16.3503 21.7522 16.5503 21.7422 16.7403C21.5522 20.2403 19.6022 22.0003 15.9022 22.0003H8.10219C7.85219 22.0003 7.62219 21.9803 7.39219 21.9503C4.21219 21.7403 2.51219 20.0403 2.29219 16.8603C2.26219 16.6203 2.24219 16.3903 2.24219 16.1503V14.2003C2.24219 12.1903 3.46219 10.4603 5.20219 9.71031C5.80219 9.45031 6.44219 9.32031 7.12219 9.32031H16.8822C17.3722 9.32031 17.8422 9.39031 18.2922 9.52031C20.2922 10.1303 21.7622 11.9903 21.7622 14.2003Z" fill="currentColor"></path><path opacity="0.6" d="M6.95219 5.53125L5.20219 9.71125C3.46219 10.4612 2.24219 12.1912 2.24219 14.2013V11.2713C2.24219 8.43125 4.26219 6.06125 6.95219 5.53125Z" fill="currentColor"></path><path opacity="0.6" d="M21.7591 11.2698V14.1998C21.7591 11.9898 20.2891 10.1298 18.2891 9.51984C18.8091 8.22984 18.9691 7.19984 18.7091 6.34984C18.6891 6.25984 18.6591 6.17984 18.6191 6.08984C20.4891 7.05984 21.7591 9.02984 21.7591 11.2698Z" fill="currentColor"></path><path d="M14.5 16.75H9.5C9.09 16.75 8.75 16.41 8.75 16C8.75 15.59 9.09 15.25 9.5 15.25H14.5C14.91 15.25 15.25 15.59 15.25 16C15.25 16.41 14.91 16.75 14.5 16.75Z" fill="currentColor"></path></svg>