<svg width="210" height="64" viewBox="0 0 210 64" fill="none" xmlns="http://www.w3.org/2000/svg">
<rect x="0.00585938" y="2" width="210" height="58.86" rx="10" fill="white"/>
<path d="M16.6699 53V47.04H20.4459V47.76H17.4539V49.688H20.1659V50.408H17.4539V53H16.6699ZM20.5237 53V48.688H21.2517V49.48L21.1717 49.368C21.2731 49.1227 21.4277 48.9413 21.6357 48.824C21.8437 48.7013 22.0971 48.64 22.3957 48.64H22.6597V49.344H22.2837C21.9797 49.344 21.7344 49.44 21.5477 49.632C21.3611 49.8187 21.2677 50.0853 21.2677 50.432V53H20.5237ZM24.8246 53.096C24.4086 53.096 24.0379 52.9973 23.7126 52.8C23.3873 52.6027 23.1313 52.3333 22.9446 51.992C22.7579 51.6453 22.6646 51.2587 22.6646 50.832C22.6646 50.4 22.7553 50.016 22.9366 49.68C23.1233 49.344 23.3739 49.08 23.6886 48.888C24.0086 48.6907 24.3659 48.592 24.7606 48.592C25.0806 48.592 25.3633 48.6507 25.6086 48.768C25.8593 48.88 26.0699 49.0347 26.2406 49.232C26.4166 49.424 26.5499 49.6453 26.6406 49.896C26.7366 50.1413 26.7846 50.3973 26.7846 50.664C26.7846 50.7227 26.7793 50.7893 26.7686 50.864C26.7633 50.9333 26.7553 51 26.7446 51.064H23.2086V50.424H26.3126L25.9606 50.712C26.0086 50.4347 25.9819 50.1867 25.8806 49.968C25.7793 49.7493 25.6299 49.576 25.4326 49.448C25.2353 49.32 25.0113 49.256 24.7606 49.256C24.5099 49.256 24.2806 49.32 24.0726 49.448C23.8646 49.576 23.7019 49.76 23.5846 50C23.4726 50.2347 23.4273 50.5147 23.4486 50.84C23.4273 51.1547 23.4753 51.432 23.5926 51.672C23.7153 51.9067 23.8859 52.0907 24.1046 52.224C24.3286 52.352 24.5713 52.416 24.8326 52.416C25.1206 52.416 25.3633 52.3493 25.5606 52.216C25.7579 52.0827 25.9179 51.912 26.0406 51.704L26.6646 52.024C26.5793 52.2213 26.4459 52.4027 26.2646 52.568C26.0886 52.728 25.8779 52.856 25.6326 52.952C25.3926 53.048 25.1233 53.096 24.8246 53.096ZM29.2587 53.096C28.8427 53.096 28.472 52.9973 28.1467 52.8C27.8213 52.6027 27.5653 52.3333 27.3787 51.992C27.192 51.6453 27.0987 51.2587 27.0987 50.832C27.0987 50.4 27.1893 50.016 27.3707 49.68C27.5573 49.344 27.808 49.08 28.1227 48.888C28.4427 48.6907 28.8 48.592 29.1947 48.592C29.5147 48.592 29.7973 48.6507 30.0427 48.768C30.2933 48.88 30.504 49.0347 30.6747 49.232C30.8507 49.424 30.984 49.6453 31.0747 49.896C31.1707 50.1413 31.2187 50.3973 31.2187 50.664C31.2187 50.7227 31.2133 50.7893 31.2027 50.864C31.1973 50.9333 31.1893 51 31.1787 51.064H27.6427V50.424H30.7467L30.3947 50.712C30.4427 50.4347 30.416 50.1867 30.3147 49.968C30.2133 49.7493 30.064 49.576 29.8667 49.448C29.6693 49.32 29.4453 49.256 29.1947 49.256C28.944 49.256 28.7147 49.32 28.5067 49.448C28.2987 49.576 28.136 49.76 28.0187 50C27.9067 50.2347 27.8613 50.5147 27.8827 50.84C27.8613 51.1547 27.9093 51.432 28.0267 51.672C28.1493 51.9067 28.32 52.0907 28.5387 52.224C28.7627 52.352 29.0053 52.416 29.2667 52.416C29.5547 52.416 29.7973 52.3493 29.9947 52.216C30.192 52.0827 30.352 51.912 30.4747 51.704L31.0987 52.024C31.0133 52.2213 30.88 52.4027 30.6987 52.568C30.5227 52.728 30.312 52.856 30.0667 52.952C29.8267 53.048 29.5573 53.096 29.2587 53.096ZM33.0675 53V49.4H32.2435V48.688H33.0675V48.384C33.0675 48.0747 33.1342 47.8133 33.2675 47.6C33.4062 47.3867 33.5875 47.224 33.8115 47.112C34.0409 47 34.2942 46.944 34.5715 46.944C34.6302 46.944 34.6942 46.9493 34.7635 46.96C34.8382 46.9653 34.8995 46.9733 34.9475 46.984V47.648C34.9049 47.6373 34.8542 47.632 34.7955 47.632C34.7369 47.6267 34.6915 47.624 34.6595 47.624C34.4142 47.624 34.2115 47.6827 34.0515 47.8C33.8969 47.9173 33.8195 48.112 33.8195 48.384V48.688H34.8435V49.4H33.8195V53H33.0675ZM37.1561 53.096C36.7401 53.096 36.3641 53 36.0281 52.808C35.6921 52.6107 35.4254 52.3413 35.2281 52C35.0308 51.6587 34.9321 51.272 34.9321 50.84C34.9321 50.408 35.0281 50.024 35.2201 49.688C35.4174 49.352 35.6841 49.0853 36.0201 48.888C36.3561 48.6907 36.7348 48.592 37.1561 48.592C37.5721 48.592 37.9481 48.6907 38.2841 48.888C38.6201 49.08 38.8841 49.344 39.0761 49.68C39.2734 50.016 39.3721 50.4027 39.3721 50.84C39.3721 51.2773 39.2708 51.6667 39.0681 52.008C38.8654 52.344 38.5961 52.6107 38.2601 52.808C37.9294 53 37.5614 53.096 37.1561 53.096ZM37.1561 52.376C37.4228 52.376 37.6628 52.3093 37.8761 52.176C38.0948 52.0427 38.2654 51.8587 38.3881 51.624C38.5161 51.3893 38.5801 51.128 38.5801 50.84C38.5801 50.5467 38.5161 50.288 38.3881 50.064C38.2654 49.8347 38.0948 49.6533 37.8761 49.52C37.6628 49.3813 37.4228 49.312 37.1561 49.312C36.8841 49.312 36.6388 49.3813 36.4201 49.52C36.2068 49.6533 36.0361 49.8347 35.9081 50.064C35.7801 50.288 35.7161 50.5467 35.7161 50.84C35.7161 51.128 35.7801 51.3893 35.9081 51.624C36.0361 51.8587 36.2068 52.0427 36.4201 52.176C36.6388 52.3093 36.8841 52.376 37.1561 52.376ZM39.8625 53V48.688H40.5905V49.48L40.5105 49.368C40.6118 49.1227 40.7665 48.9413 40.9745 48.824C41.1825 48.7013 41.4358 48.64 41.7345 48.64H41.9985V49.344H41.6225C41.3185 49.344 41.0732 49.44 40.8865 49.632C40.6998 49.8187 40.6065 50.0853 40.6065 50.432V53H39.8625ZM43.0822 53V46.944H43.8262V53H43.0822ZM44.5006 53V48.688H45.2446V53H44.5006ZM44.5006 48V47.04H45.2446V48H44.5006ZM46.375 53V49.4H45.551V48.688H46.375V48.384C46.375 48.0747 46.4417 47.8133 46.575 47.6C46.7137 47.3867 46.895 47.224 47.119 47.112C47.3484 47 47.6017 46.944 47.879 46.944C47.9377 46.944 48.0017 46.9493 48.071 46.96C48.1457 46.9653 48.207 46.9733 48.255 46.984V47.648C48.2124 47.6373 48.1617 47.632 48.103 47.632C48.0444 47.6267 47.999 47.624 47.967 47.624C47.7217 47.624 47.519 47.6827 47.359 47.8C47.2044 47.9173 47.127 48.112 47.127 48.384V48.688H48.151V49.4H47.127V53H46.375ZM50.3996 53.096C49.9836 53.096 49.6129 52.9973 49.2876 52.8C48.9623 52.6027 48.7063 52.3333 48.5196 51.992C48.3329 51.6453 48.2396 51.2587 48.2396 50.832C48.2396 50.4 48.3303 50.016 48.5116 49.68C48.6983 49.344 48.9489 49.08 49.2636 48.888C49.5836 48.6907 49.9409 48.592 50.3356 48.592C50.6556 48.592 50.9383 48.6507 51.1836 48.768C51.4343 48.88 51.6449 49.0347 51.8156 49.232C51.9916 49.424 52.1249 49.6453 52.2156 49.896C52.3116 50.1413 52.3596 50.3973 52.3596 50.664C52.3596 50.7227 52.3543 50.7893 52.3436 50.864C52.3383 50.9333 52.3303 51 52.3196 51.064H48.7836V50.424H51.8876L51.5356 50.712C51.5836 50.4347 51.5569 50.1867 51.4556 49.968C51.3543 49.7493 51.2049 49.576 51.0076 49.448C50.8103 49.32 50.5863 49.256 50.3356 49.256C50.0849 49.256 49.8556 49.32 49.6476 49.448C49.4396 49.576 49.2769 49.76 49.1596 50C49.0476 50.2347 49.0023 50.5147 49.0236 50.84C49.0023 51.1547 49.0503 51.432 49.1676 51.672C49.2903 51.9067 49.4609 52.0907 49.6796 52.224C49.9036 52.352 50.1463 52.416 50.4076 52.416C50.6956 52.416 50.9383 52.3493 51.1356 52.216C51.3329 52.0827 51.4929 51.912 51.6156 51.704L52.2396 52.024C52.1543 52.2213 52.0209 52.4027 51.8396 52.568C51.6636 52.728 51.4529 52.856 51.2076 52.952C50.9676 53.048 50.6983 53.096 50.3996 53.096ZM52.9777 54.112V53.752C53.143 53.7093 53.2683 53.6267 53.3537 53.504C53.439 53.3813 53.487 53.2133 53.4977 53H53.1377V52.04H53.9137V52.72C53.9137 53.104 53.8337 53.4133 53.6737 53.648C53.519 53.8827 53.287 54.0373 52.9777 54.112ZM55.6631 54.6V48.688H56.3911V49.616L56.2951 49.432C56.4551 49.176 56.6738 48.9733 56.9511 48.824C57.2284 48.6693 57.5458 48.592 57.9031 48.592C58.3084 48.592 58.6711 48.6907 58.9911 48.888C59.3164 49.0853 59.5724 49.3547 59.7591 49.696C59.9458 50.032 60.0391 50.416 60.0391 50.848C60.0391 51.2693 59.9458 51.6507 59.7591 51.992C59.5724 52.3333 59.3164 52.6027 58.9911 52.8C58.6711 52.9973 58.3058 53.096 57.8951 53.096C57.5484 53.096 57.2311 53.0187 56.9431 52.864C56.6604 52.7093 56.4418 52.4907 56.2871 52.208L56.4071 52.08V54.6H55.6631ZM57.8391 52.376C58.1111 52.376 58.3538 52.3093 58.5671 52.176C58.7804 52.0427 58.9458 51.8613 59.0631 51.632C59.1858 51.3973 59.2471 51.136 59.2471 50.848C59.2471 50.5493 59.1858 50.288 59.0631 50.064C58.9458 49.8347 58.7804 49.6533 58.5671 49.52C58.3538 49.3813 58.1111 49.312 57.8391 49.312C57.5671 49.312 57.3218 49.3787 57.1031 49.512C56.8898 49.6453 56.7191 49.8293 56.5911 50.064C56.4684 50.2933 56.4071 50.5547 56.4071 50.848C56.4071 51.136 56.4684 51.3973 56.5911 51.632C56.7191 51.8613 56.8898 52.0427 57.1031 52.176C57.3218 52.3093 57.5671 52.376 57.8391 52.376ZM61.7987 53.096C61.516 53.096 61.2653 53.0453 61.0467 52.944C60.8333 52.8373 60.6653 52.6933 60.5427 52.512C60.42 52.3253 60.3587 52.112 60.3587 51.872C60.3587 51.6427 60.4067 51.4373 60.5027 51.256C60.604 51.0693 60.7587 50.912 60.9667 50.784C61.18 50.656 61.4467 50.5653 61.7667 50.512L63.3667 50.248V50.872L61.9347 51.112C61.6573 51.16 61.4547 51.248 61.3267 51.376C61.204 51.504 61.1427 51.6613 61.1427 51.848C61.1427 52.024 61.212 52.1707 61.3507 52.288C61.4947 52.4053 61.6733 52.464 61.8867 52.464C62.1587 52.464 62.3933 52.408 62.5907 52.296C62.7933 52.1787 62.9507 52.0213 63.0627 51.824C63.18 51.6267 63.2387 51.408 63.2387 51.168V50.072C63.2387 49.8373 63.1507 49.648 62.9747 49.504C62.804 49.3547 62.5773 49.28 62.2947 49.28C62.0493 49.28 61.8307 49.344 61.6387 49.472C61.452 49.5947 61.3133 49.76 61.2227 49.968L60.5747 49.632C60.6547 49.4347 60.7827 49.2587 60.9587 49.104C61.1347 48.944 61.34 48.8187 61.5747 48.728C61.8093 48.6373 62.0547 48.592 62.3107 48.592C62.6413 48.592 62.932 48.656 63.1827 48.784C63.4333 48.9067 63.628 49.08 63.7667 49.304C63.9107 49.5227 63.9827 49.7787 63.9827 50.072V53H63.2547V52.184L63.3907 52.232C63.3 52.4027 63.1773 52.552 63.0227 52.68C62.868 52.808 62.6867 52.9093 62.4787 52.984C62.2707 53.0587 62.044 53.096 61.7987 53.096ZM64.8882 54.76C64.7922 54.76 64.6962 54.752 64.6002 54.736C64.5042 54.72 64.4136 54.6933 64.3282 54.656V53.992C64.3869 54.0027 64.4589 54.0133 64.5442 54.024C64.6349 54.04 64.7229 54.048 64.8082 54.048C65.0589 54.048 65.2482 53.992 65.3762 53.88C65.5096 53.7733 65.6349 53.5867 65.7522 53.32L66.0242 52.672L66.0082 53.32L64.1682 48.688H64.9762L66.4082 52.368H66.1682L67.5922 48.688H68.4162L66.4722 53.512C66.3816 53.7413 66.2642 53.9493 66.1202 54.136C65.9816 54.328 65.8109 54.48 65.6082 54.592C65.4056 54.704 65.1656 54.76 64.8882 54.76ZM69.9569 53V49.4H69.1329V48.688H69.9569V48.384C69.9569 48.0747 70.0236 47.8133 70.1569 47.6C70.2956 47.3867 70.4769 47.224 70.7009 47.112C70.9303 47 71.1836 46.944 71.4609 46.944C71.5196 46.944 71.5836 46.9493 71.6529 46.96C71.7276 46.9653 71.7889 46.9733 71.8369 46.984V47.648C71.7943 47.6373 71.7436 47.632 71.6849 47.632C71.6263 47.6267 71.5809 47.624 71.5489 47.624C71.3036 47.624 71.1009 47.6827 70.9409 47.8C70.7863 47.9173 70.7089 48.112 70.7089 48.384V48.688H71.7329V49.4H70.7089V53H69.9569ZM74.0455 53.096C73.6295 53.096 73.2535 53 72.9175 52.808C72.5815 52.6107 72.3148 52.3413 72.1175 52C71.9202 51.6587 71.8215 51.272 71.8215 50.84C71.8215 50.408 71.9175 50.024 72.1095 49.688C72.3068 49.352 72.5735 49.0853 72.9095 48.888C73.2455 48.6907 73.6242 48.592 74.0455 48.592C74.4615 48.592 74.8375 48.6907 75.1735 48.888C75.5095 49.08 75.7735 49.344 75.9655 49.68C76.1628 50.016 76.2615 50.4027 76.2615 50.84C76.2615 51.2773 76.1602 51.6667 75.9575 52.008C75.7548 52.344 75.4855 52.6107 75.1495 52.808C74.8188 53 74.4508 53.096 74.0455 53.096ZM74.0455 52.376C74.3122 52.376 74.5522 52.3093 74.7655 52.176C74.9842 52.0427 75.1548 51.8587 75.2775 51.624C75.4055 51.3893 75.4695 51.128 75.4695 50.84C75.4695 50.5467 75.4055 50.288 75.2775 50.064C75.1548 49.8347 74.9842 49.6533 74.7655 49.52C74.5522 49.3813 74.3122 49.312 74.0455 49.312C73.7735 49.312 73.5282 49.3813 73.3095 49.52C73.0962 49.6533 72.9255 49.8347 72.7975 50.064C72.6695 50.288 72.6055 50.5467 72.6055 50.84C72.6055 51.128 72.6695 51.3893 72.7975 51.624C72.9255 51.8587 73.0962 52.0427 73.3095 52.176C73.5282 52.3093 73.7735 52.376 74.0455 52.376ZM76.7519 53V48.688H77.4799V49.48L77.3999 49.368C77.5012 49.1227 77.6559 48.9413 77.8639 48.824C78.0719 48.7013 78.3252 48.64 78.6239 48.64H78.8879V49.344H78.5119C78.2079 49.344 77.9625 49.44 77.7759 49.632C77.5892 49.8187 77.4959 50.0853 77.4959 50.432V53H76.7519ZM81.9715 53.096C81.5502 53.096 81.1742 52.9973 80.8435 52.8C80.5182 52.6027 80.2622 52.3333 80.0755 51.992C79.8889 51.6507 79.7955 51.2667 79.7955 50.84C79.7955 50.408 79.8889 50.024 80.0755 49.688C80.2622 49.352 80.5182 49.0853 80.8435 48.888C81.1742 48.6907 81.5502 48.592 81.9715 48.592C82.2542 48.592 82.5182 48.6427 82.7635 48.744C83.0089 48.8453 83.2249 48.9813 83.4115 49.152C83.5982 49.3227 83.7342 49.5227 83.8195 49.752L83.1555 50.072C83.0542 49.848 82.8995 49.6667 82.6915 49.528C82.4835 49.384 82.2435 49.312 81.9715 49.312C81.7102 49.312 81.4729 49.3787 81.2595 49.512C81.0515 49.6453 80.8862 49.8267 80.7635 50.056C80.6409 50.2853 80.5795 50.5493 80.5795 50.848C80.5795 51.136 80.6409 51.3973 80.7635 51.632C80.8862 51.8613 81.0515 52.0427 81.2595 52.176C81.4729 52.3093 81.7102 52.376 81.9715 52.376C82.2435 52.376 82.4835 52.3067 82.6915 52.168C82.8995 52.024 83.0542 51.8347 83.1555 51.6L83.8195 51.936C83.7342 52.16 83.5982 52.36 83.4115 52.536C83.2249 52.7067 83.0089 52.8427 82.7635 52.944C82.5182 53.0453 82.2542 53.096 81.9715 53.096ZM85.5212 53.096C85.2385 53.096 84.9878 53.0453 84.7692 52.944C84.5558 52.8373 84.3878 52.6933 84.2652 52.512C84.1425 52.3253 84.0812 52.112 84.0812 51.872C84.0812 51.6427 84.1292 51.4373 84.2252 51.256C84.3265 51.0693 84.4812 50.912 84.6892 50.784C84.9025 50.656 85.1692 50.5653 85.4892 50.512L87.0892 50.248V50.872L85.6572 51.112C85.3798 51.16 85.1772 51.248 85.0492 51.376C84.9265 51.504 84.8652 51.6613 84.8652 51.848C84.8652 52.024 84.9345 52.1707 85.0732 52.288C85.2172 52.4053 85.3958 52.464 85.6092 52.464C85.8812 52.464 86.1158 52.408 86.3132 52.296C86.5158 52.1787 86.6732 52.0213 86.7852 51.824C86.9025 51.6267 86.9612 51.408 86.9612 51.168V50.072C86.9612 49.8373 86.8732 49.648 86.6972 49.504C86.5265 49.3547 86.2998 49.28 86.0172 49.28C85.7718 49.28 85.5532 49.344 85.3612 49.472C85.1745 49.5947 85.0358 49.76 84.9452 49.968L84.2972 49.632C84.3772 49.4347 84.5052 49.2587 84.6812 49.104C84.8572 48.944 85.0625 48.8187 85.2972 48.728C85.5318 48.6373 85.7772 48.592 86.0332 48.592C86.3638 48.592 86.6545 48.656 86.9052 48.784C87.1558 48.9067 87.3505 49.08 87.4892 49.304C87.6332 49.5227 87.7052 49.7787 87.7052 50.072V53H86.9772V52.184L87.1132 52.232C87.0225 52.4027 86.8998 52.552 86.7452 52.68C86.5905 52.808 86.4092 52.9093 86.2012 52.984C85.9932 53.0587 85.7665 53.096 85.5212 53.096ZM88.3787 53V48.688H89.1067V49.48L89.0267 49.368C89.1281 49.1227 89.2827 48.9413 89.4907 48.824C89.6987 48.7013 89.9521 48.64 90.2507 48.64H90.5147V49.344H90.1387C89.8347 49.344 89.5894 49.44 89.4027 49.632C89.2161 49.8187 89.1227 50.0853 89.1227 50.432V53H88.3787ZM92.6556 53.096C92.2503 53.096 91.8849 52.9973 91.5596 52.8C91.2396 52.6027 90.9863 52.3333 90.7996 51.992C90.6129 51.6507 90.5196 51.2693 90.5196 50.848C90.5196 50.416 90.6129 50.032 90.7996 49.696C90.9863 49.3547 91.2396 49.0853 91.5596 48.888C91.8849 48.6907 92.2503 48.592 92.6556 48.592C93.0129 48.592 93.3303 48.6693 93.6076 48.824C93.8849 48.9733 94.1036 49.176 94.2636 49.432L94.1436 49.616V46.944H94.8956V53H94.1676V52.08L94.2636 52.208C94.1143 52.4907 93.8956 52.7093 93.6076 52.864C93.3249 53.0187 93.0076 53.096 92.6556 53.096ZM92.7196 52.376C92.9916 52.376 93.2343 52.3093 93.4476 52.176C93.6609 52.0427 93.8289 51.8613 93.9516 51.632C94.0796 51.3973 94.1436 51.136 94.1436 50.848C94.1436 50.5547 94.0796 50.2933 93.9516 50.064C93.8289 49.8293 93.6609 49.6453 93.4476 49.512C93.2343 49.3787 92.9916 49.312 92.7196 49.312C92.4529 49.312 92.2103 49.3813 91.9916 49.52C91.7783 49.6533 91.6103 49.8347 91.4876 50.064C91.3649 50.288 91.3036 50.5493 91.3036 50.848C91.3036 51.136 91.3649 51.3973 91.4876 51.632C91.6103 51.8613 91.7783 52.0427 91.9916 52.176C92.2049 52.3093 92.4476 52.376 92.7196 52.376Z" fill="black"/>
<path d="M17.0399 39V25.59H20.5859L25.0859 37.956L24.2399 38.226V25.59H26.9219V39H23.3579L18.9659 26.562L19.7399 26.292V39H17.0399ZM15.5999 33.096V31.476H28.3619V33.096H15.5999ZM33.7829 39.216C32.7149 39.216 31.7729 38.928 30.9569 38.352C30.1529 37.776 29.5229 36.966 29.0669 35.922C28.6109 34.878 28.3829 33.666 28.3829 32.286C28.3829 30.894 28.6049 29.682 29.0489 28.65C29.5049 27.618 30.1349 26.814 30.9389 26.238C31.7549 25.662 32.6969 25.374 33.7649 25.374C34.8569 25.374 35.8049 25.662 36.6089 26.238C37.4249 26.814 38.0549 27.624 38.4989 28.668C38.9549 29.7 39.1829 30.906 39.1829 32.286C39.1829 33.666 38.9549 34.878 38.4989 35.922C38.0549 36.954 37.4249 37.764 36.6089 38.352C35.8049 38.928 34.8629 39.216 33.7829 39.216ZM33.8009 36.696C34.3529 36.696 34.8209 36.522 35.2049 36.174C35.5889 35.826 35.8829 35.322 36.0869 34.662C36.2909 34.002 36.3929 33.21 36.3929 32.286C36.3929 31.362 36.2909 30.576 36.0869 29.928C35.8829 29.268 35.5829 28.764 35.1869 28.416C34.8029 28.068 34.3289 27.894 33.7649 27.894C33.2129 27.894 32.7449 28.068 32.3609 28.416C31.9769 28.764 31.6829 29.268 31.4789 29.928C31.2749 30.576 31.1729 31.362 31.1729 32.286C31.1729 33.198 31.2749 33.984 31.4789 34.644C31.6829 35.304 31.9769 35.814 32.3609 36.174C32.7569 36.522 33.2369 36.696 33.8009 36.696ZM40.9284 39V36.3H43.6284V39H40.9284ZM50.7741 39.216C49.7061 39.216 48.7641 38.928 47.9481 38.352C47.1441 37.776 46.5141 36.966 46.0581 35.922C45.6021 34.878 45.3741 33.666 45.3741 32.286C45.3741 30.894 45.5961 29.682 46.0401 28.65C46.4961 27.618 47.1261 26.814 47.9301 26.238C48.7461 25.662 49.6881 25.374 50.7561 25.374C51.8481 25.374 52.7961 25.662 53.6001 26.238C54.4161 26.814 55.0461 27.624 55.4901 28.668C55.9461 29.7 56.1741 30.906 56.1741 32.286C56.1741 33.666 55.9461 34.878 55.4901 35.922C55.0461 36.954 54.4161 37.764 53.6001 38.352C52.7961 38.928 51.8541 39.216 50.7741 39.216ZM50.7921 36.696C51.3441 36.696 51.8121 36.522 52.1961 36.174C52.5801 35.826 52.8741 35.322 53.0781 34.662C53.2821 34.002 53.3841 33.21 53.3841 32.286C53.3841 31.362 53.2821 30.576 53.0781 29.928C52.8741 29.268 52.5741 28.764 52.1781 28.416C51.7941 28.068 51.3201 27.894 50.7561 27.894C50.2041 27.894 49.7361 28.068 49.3521 28.416C48.9681 28.764 48.6741 29.268 48.4701 29.928C48.2661 30.576 48.1641 31.362 48.1641 32.286C48.1641 33.198 48.2661 33.984 48.4701 34.644C48.6741 35.304 48.9681 35.814 49.3521 36.174C49.7481 36.522 50.2281 36.696 50.7921 36.696ZM61.8976 39.216C60.8296 39.216 59.8876 38.928 59.0716 38.352C58.2676 37.776 57.6376 36.966 57.1816 35.922C56.7256 34.878 56.4976 33.666 56.4976 32.286C56.4976 30.894 56.7196 29.682 57.1636 28.65C57.6196 27.618 58.2496 26.814 59.0536 26.238C59.8696 25.662 60.8116 25.374 61.8796 25.374C62.9716 25.374 63.9196 25.662 64.7236 26.238C65.5396 26.814 66.1696 27.624 66.6136 28.668C67.0696 29.7 67.2976 30.906 67.2976 32.286C67.2976 33.666 67.0696 34.878 66.6136 35.922C66.1696 36.954 65.5396 37.764 64.7236 38.352C63.9196 38.928 62.9776 39.216 61.8976 39.216ZM61.9156 36.696C62.4676 36.696 62.9356 36.522 63.3196 36.174C63.7036 35.826 63.9976 35.322 64.2016 34.662C64.4056 34.002 64.5076 33.21 64.5076 32.286C64.5076 31.362 64.4056 30.576 64.2016 29.928C63.9976 29.268 63.6976 28.764 63.3016 28.416C62.9176 28.068 62.4436 27.894 61.8796 27.894C61.3276 27.894 60.8596 28.068 60.4756 28.416C60.0916 28.764 59.7976 29.268 59.5936 29.928C59.3896 30.576 59.2876 31.362 59.2876 32.286C59.2876 33.198 59.3896 33.984 59.5936 34.644C59.7976 35.304 60.0916 35.814 60.4756 36.174C60.8716 36.522 61.3516 36.696 61.9156 36.696Z" fill="black"/>
<path d="M16.7319 18V9.805H19.4049C20.2922 9.805 21.0622 9.981 21.7149 10.333C22.3675 10.685 22.8735 11.169 23.2329 11.785C23.5922 12.401 23.7719 13.105 23.7719 13.897C23.7719 14.689 23.5922 15.3967 23.2329 16.02C22.8735 16.636 22.3675 17.12 21.7149 17.472C21.0622 17.824 20.2922 18 19.4049 18H16.7319ZM18.4369 16.515H19.4489C19.9842 16.515 20.4462 16.4087 20.8349 16.196C21.2235 15.976 21.5242 15.6717 21.7369 15.283C21.9569 14.887 22.0669 14.425 22.0669 13.897C22.0669 13.3617 21.9569 12.8997 21.7369 12.511C21.5242 12.1223 21.2235 11.8217 20.8349 11.609C20.4462 11.3963 19.9842 11.29 19.4489 11.29H18.4369V16.515ZM24.2627 18V11.994H25.9127V18H24.2627ZM24.2627 11.455V9.805H25.9127V11.455H24.2627ZM29.5881 20.42C29.1261 20.42 28.6971 20.343 28.3011 20.189C27.9051 20.035 27.5641 19.8187 27.2781 19.54C26.9995 19.2687 26.7978 18.946 26.6731 18.572L28.2021 18.033C28.2828 18.3117 28.4478 18.5317 28.6971 18.693C28.9465 18.8543 29.2435 18.935 29.5881 18.935C29.8595 18.935 30.0941 18.8837 30.2921 18.781C30.4901 18.6857 30.6405 18.5427 30.7431 18.352C30.8531 18.1613 30.9081 17.9377 30.9081 17.681V16.306L31.2271 16.702C31.0218 17.0393 30.7578 17.2923 30.4351 17.461C30.1125 17.6223 29.7348 17.703 29.3021 17.703C28.7448 17.703 28.2461 17.5783 27.8061 17.329C27.3661 17.0723 27.0215 16.724 26.7721 16.284C26.5228 15.8367 26.3981 15.3307 26.3981 14.766C26.3981 14.2013 26.5228 13.7027 26.7721 13.27C27.0215 12.83 27.3625 12.4853 27.7951 12.236C28.2278 11.9867 28.7191 11.862 29.2691 11.862C29.7018 11.862 30.0795 11.95 30.4021 12.126C30.7248 12.2947 30.9998 12.555 31.2271 12.907L31.0181 13.303V11.994H32.5581V17.681C32.5581 18.209 32.4298 18.6783 32.1731 19.089C31.9165 19.507 31.5645 19.8333 31.1171 20.068C30.6771 20.3027 30.1675 20.42 29.5881 20.42ZM29.5331 16.207C29.8118 16.207 30.0538 16.1483 30.2591 16.031C30.4645 15.9137 30.6221 15.7487 30.7321 15.536C30.8495 15.3233 30.9081 15.074 30.9081 14.788C30.9081 14.502 30.8495 14.2527 30.7321 14.04C30.6148 13.82 30.4535 13.6513 30.2481 13.534C30.0428 13.4093 29.8045 13.347 29.5331 13.347C29.2545 13.347 29.0051 13.4093 28.7851 13.534C28.5725 13.6513 28.4038 13.82 28.2791 14.04C28.1618 14.2527 28.1031 14.502 28.1031 14.788C28.1031 15.0667 28.1618 15.3123 28.2791 15.525C28.4038 15.7377 28.5725 15.9063 28.7851 16.031C29.0051 16.1483 29.2545 16.207 29.5331 16.207ZM33.2929 18V11.994H34.9429V18H33.2929ZM33.2929 11.455V9.805H34.9429V11.455H33.2929ZM38.5634 18.066C37.8374 18.066 37.2727 17.8717 36.8694 17.483C36.4734 17.087 36.2754 16.537 36.2754 15.833V13.424H35.2634V11.994H35.3184C35.6264 11.994 35.861 11.917 36.0224 11.763C36.191 11.609 36.2754 11.378 36.2754 11.07V10.63H37.9254V11.994H39.3334V13.424H37.9254V15.723C37.9254 15.9283 37.962 16.1007 38.0354 16.24C38.1087 16.372 38.2224 16.471 38.3764 16.537C38.5304 16.603 38.721 16.636 38.9484 16.636C38.9997 16.636 39.0584 16.6323 39.1244 16.625C39.1904 16.6177 39.26 16.6103 39.3334 16.603V18C39.2234 18.0147 39.0987 18.0293 38.9594 18.044C38.82 18.0587 38.688 18.066 38.5634 18.066ZM41.6792 18.132C41.2466 18.132 40.8726 18.0623 40.5572 17.923C40.2419 17.7837 39.9999 17.5857 39.8312 17.329C39.6626 17.065 39.5782 16.7533 39.5782 16.394C39.5782 16.0567 39.6552 15.7597 39.8092 15.503C39.9632 15.239 40.1979 15.019 40.5132 14.843C40.8359 14.667 41.2356 14.5423 41.7122 14.469L43.5492 14.172V15.382L42.0092 15.657C41.7746 15.701 41.5949 15.778 41.4702 15.888C41.3456 15.9907 41.2832 16.141 41.2832 16.339C41.2832 16.5223 41.3529 16.6653 41.4922 16.768C41.6316 16.8707 41.8039 16.922 42.0092 16.922C42.2806 16.922 42.5189 16.8633 42.7242 16.746C42.9296 16.6287 43.0872 16.471 43.1972 16.273C43.3146 16.0677 43.3732 15.844 43.3732 15.602V14.04C43.3732 13.8127 43.2816 13.622 43.0982 13.468C42.9222 13.314 42.6802 13.237 42.3722 13.237C42.0789 13.237 41.8186 13.3177 41.5912 13.479C41.3712 13.6403 41.2099 13.853 41.1072 14.117L39.7872 13.49C39.9046 13.1527 40.0916 12.863 40.3482 12.621C40.6049 12.379 40.9129 12.192 41.2722 12.06C41.6316 11.928 42.0239 11.862 42.4492 11.862C42.9552 11.862 43.4026 11.9537 43.7912 12.137C44.1799 12.3203 44.4806 12.577 44.6932 12.907C44.9132 13.2297 45.0232 13.6073 45.0232 14.04V18H43.4832V17.032L43.8572 16.966C43.6812 17.23 43.4869 17.45 43.2742 17.626C43.0616 17.7947 42.8232 17.9193 42.5592 18C42.2952 18.088 42.0019 18.132 41.6792 18.132ZM45.7533 18V9.673H47.4033V18H45.7533ZM49.7483 18V9.805H53.2133C53.778 9.805 54.262 9.90033 54.6653 10.091C55.0686 10.2817 55.3766 10.5567 55.5893 10.916C55.802 11.268 55.9083 11.697 55.9083 12.203C55.9083 12.5623 55.8093 12.907 55.6113 13.237C55.4133 13.5597 55.087 13.831 54.6323 14.051V13.215C55.065 13.3837 55.3986 13.5853 55.6333 13.82C55.868 14.0547 56.0293 14.3113 56.1173 14.59C56.2053 14.8613 56.2493 15.1473 56.2493 15.448C56.2493 16.2547 55.9816 16.8817 55.4463 17.329C54.911 17.7763 54.1666 18 53.2133 18H49.7483ZM51.4533 16.515H53.4113C53.756 16.515 54.031 16.416 54.2363 16.218C54.4416 16.02 54.5443 15.7633 54.5443 15.448C54.5443 15.1253 54.4416 14.865 54.2363 14.667C54.031 14.469 53.756 14.37 53.4113 14.37H51.4533V16.515ZM51.4533 12.885H53.3343C53.5983 12.885 53.8073 12.8117 53.9613 12.665C54.1226 12.511 54.2033 12.3093 54.2033 12.06C54.2033 11.8107 54.1226 11.6127 53.9613 11.466C53.8073 11.312 53.5983 11.235 53.3343 11.235H51.4533V12.885ZM58.898 18.132C58.414 18.132 57.9997 18.0293 57.655 17.824C57.3177 17.6113 57.061 17.318 56.885 16.944C56.709 16.57 56.621 16.1337 56.621 15.635V11.994H58.271V15.503C58.271 15.7303 58.315 15.932 58.403 16.108C58.4984 16.2767 58.6304 16.4087 58.799 16.504C58.9677 16.5993 59.1584 16.647 59.371 16.647C59.591 16.647 59.7817 16.5993 59.943 16.504C60.1117 16.4087 60.24 16.2767 60.328 16.108C60.4234 15.932 60.471 15.7303 60.471 15.503V11.994H62.121V18H60.581V16.812L60.669 17.076C60.5297 17.4353 60.3024 17.703 59.987 17.879C59.679 18.0477 59.316 18.132 58.898 18.132ZM65.201 18.132C64.541 18.132 63.9653 17.978 63.474 17.67C62.99 17.3547 62.66 16.933 62.484 16.405L63.694 15.833C63.848 16.1557 64.057 16.4087 64.321 16.592C64.585 16.7753 64.8783 16.867 65.201 16.867C65.4357 16.867 65.6153 16.8193 65.74 16.724C65.8647 16.6287 65.927 16.4967 65.927 16.328C65.927 16.24 65.905 16.1667 65.861 16.108C65.817 16.042 65.751 15.9833 65.663 15.932C65.575 15.8807 65.465 15.8367 65.333 15.8L64.31 15.514C63.8187 15.3747 63.441 15.151 63.177 14.843C62.913 14.5277 62.781 14.1573 62.781 13.732C62.781 13.358 62.8763 13.0317 63.067 12.753C63.2577 12.4743 63.5253 12.258 63.87 12.104C64.2147 11.9427 64.6107 11.862 65.058 11.862C65.6447 11.862 66.158 12.0013 66.598 12.28C67.0453 12.5513 67.3607 12.9363 67.544 13.435L66.323 14.007C66.235 13.7577 66.0737 13.5597 65.839 13.413C65.6117 13.259 65.3513 13.182 65.058 13.182C64.8453 13.182 64.6767 13.226 64.552 13.314C64.4347 13.402 64.376 13.523 64.376 13.677C64.376 13.7577 64.398 13.831 64.442 13.897C64.486 13.963 64.5557 14.0217 64.651 14.073C64.7537 14.1243 64.8783 14.172 65.025 14.216L65.982 14.502C66.4807 14.6487 66.862 14.8723 67.126 15.173C67.39 15.4663 67.522 15.8293 67.522 16.262C67.522 16.636 67.423 16.9623 67.225 17.241C67.0343 17.5197 66.7667 17.7397 66.422 17.901C66.0773 18.055 65.6703 18.132 65.201 18.132ZM68.0281 18V11.994H69.6781V18H68.0281ZM68.0281 11.455V9.805H69.6781V11.455H68.0281ZM70.4055 18V11.994H71.9455V13.182L71.8575 12.918C71.9969 12.5587 72.2205 12.2947 72.5285 12.126C72.8439 11.95 73.2105 11.862 73.6285 11.862C74.0832 11.862 74.4792 11.9573 74.8165 12.148C75.1612 12.3387 75.4289 12.6063 75.6195 12.951C75.8102 13.2883 75.9055 13.6843 75.9055 14.139V18H74.2555V14.491C74.2555 14.2563 74.2079 14.0547 74.1125 13.886C74.0245 13.7173 73.8962 13.5853 73.7275 13.49C73.5662 13.3947 73.3755 13.347 73.1555 13.347C72.9429 13.347 72.7522 13.3947 72.5835 13.49C72.4149 13.5853 72.2829 13.7173 72.1875 13.886C72.0995 14.0547 72.0555 14.2563 72.0555 14.491V18H70.4055ZM79.4035 18.132C78.7655 18.132 78.2118 17.9927 77.7425 17.714C77.2732 17.428 76.9102 17.0467 76.6535 16.57C76.3968 16.0933 76.2685 15.5653 76.2685 14.986C76.2685 14.3847 76.4005 13.8493 76.6645 13.38C76.9358 12.9107 77.2988 12.5403 77.7535 12.269C78.2082 11.9977 78.7215 11.862 79.2935 11.862C79.7702 11.862 80.1918 11.939 80.5585 12.093C80.9252 12.2397 81.2332 12.4487 81.4825 12.72C81.7392 12.9913 81.9335 13.3067 82.0655 13.666C82.1975 14.018 82.2635 14.403 82.2635 14.821C82.2635 14.9383 82.2562 15.0557 82.2415 15.173C82.2342 15.283 82.2158 15.3783 82.1865 15.459H77.6875V14.249H81.2515L80.4705 14.821C80.5438 14.5057 80.5402 14.227 80.4595 13.985C80.3788 13.7357 80.2358 13.5413 80.0305 13.402C79.8325 13.2553 79.5868 13.182 79.2935 13.182C79.0075 13.182 78.7618 13.2517 78.5565 13.391C78.3512 13.5303 78.1972 13.7357 78.0945 14.007C77.9918 14.2783 77.9515 14.6083 77.9735 14.997C77.9442 15.3343 77.9845 15.6313 78.0945 15.888C78.2045 16.1447 78.3732 16.3463 78.6005 16.493C78.8278 16.6323 79.1028 16.702 79.4255 16.702C79.7188 16.702 79.9682 16.6433 80.1735 16.526C80.3862 16.4087 80.5512 16.2473 80.6685 16.042L81.9885 16.669C81.8712 16.9623 81.6842 17.219 81.4275 17.439C81.1782 17.659 80.8812 17.8313 80.5365 17.956C80.1918 18.0733 79.8142 18.132 79.4035 18.132ZM85.1091 18.132C84.4491 18.132 83.8734 17.978 83.3821 17.67C82.8981 17.3547 82.5681 16.933 82.3921 16.405L83.6021 15.833C83.7561 16.1557 83.9651 16.4087 84.2291 16.592C84.4931 16.7753 84.7864 16.867 85.1091 16.867C85.3438 16.867 85.5234 16.8193 85.6481 16.724C85.7728 16.6287 85.8351 16.4967 85.8351 16.328C85.8351 16.24 85.8131 16.1667 85.7691 16.108C85.7251 16.042 85.6591 15.9833 85.5711 15.932C85.4831 15.8807 85.3731 15.8367 85.2411 15.8L84.2181 15.514C83.7268 15.3747 83.3491 15.151 83.0851 14.843C82.8211 14.5277 82.6891 14.1573 82.6891 13.732C82.6891 13.358 82.7844 13.0317 82.9751 12.753C83.1658 12.4743 83.4334 12.258 83.7781 12.104C84.1228 11.9427 84.5188 11.862 84.9661 11.862C85.5528 11.862 86.0661 12.0013 86.5061 12.28C86.9534 12.5513 87.2688 12.9363 87.4521 13.435L86.2311 14.007C86.1431 13.7577 85.9818 13.5597 85.7471 13.413C85.5198 13.259 85.2594 13.182 84.9661 13.182C84.7534 13.182 84.5848 13.226 84.4601 13.314C84.3428 13.402 84.2841 13.523 84.2841 13.677C84.2841 13.7577 84.3061 13.831 84.3501 13.897C84.3941 13.963 84.4638 14.0217 84.5591 14.073C84.6618 14.1243 84.7864 14.172 84.9331 14.216L85.8901 14.502C86.3888 14.6487 86.7701 14.8723 87.0341 15.173C87.2981 15.4663 87.4301 15.8293 87.4301 16.262C87.4301 16.636 87.3311 16.9623 87.1331 17.241C86.9424 17.5197 86.6748 17.7397 86.3301 17.901C85.9854 18.055 85.5784 18.132 85.1091 18.132ZM90.2903 18.132C89.6303 18.132 89.0546 17.978 88.5633 17.67C88.0793 17.3547 87.7493 16.933 87.5733 16.405L88.7833 15.833C88.9373 16.1557 89.1463 16.4087 89.4103 16.592C89.6743 16.7753 89.9676 16.867 90.2903 16.867C90.5249 16.867 90.7046 16.8193 90.8293 16.724C90.9539 16.6287 91.0163 16.4967 91.0163 16.328C91.0163 16.24 90.9943 16.1667 90.9503 16.108C90.9063 16.042 90.8403 15.9833 90.7523 15.932C90.6643 15.8807 90.5543 15.8367 90.4223 15.8L89.3993 15.514C88.9079 15.3747 88.5303 15.151 88.2663 14.843C88.0023 14.5277 87.8703 14.1573 87.8703 13.732C87.8703 13.358 87.9656 13.0317 88.1563 12.753C88.3469 12.4743 88.6146 12.258 88.9593 12.104C89.3039 11.9427 89.6999 11.862 90.1473 11.862C90.7339 11.862 91.2473 12.0013 91.6873 12.28C92.1346 12.5513 92.4499 12.9363 92.6333 13.435L91.4123 14.007C91.3243 13.7577 91.1629 13.5597 90.9283 13.413C90.7009 13.259 90.4406 13.182 90.1473 13.182C89.9346 13.182 89.7659 13.226 89.6413 13.314C89.5239 13.402 89.4653 13.523 89.4653 13.677C89.4653 13.7577 89.4873 13.831 89.5313 13.897C89.5753 13.963 89.6449 14.0217 89.7403 14.073C89.8429 14.1243 89.9676 14.172 90.1143 14.216L91.0713 14.502C91.5699 14.6487 91.9513 14.8723 92.2153 15.173C92.4793 15.4663 92.6113 15.8293 92.6113 16.262C92.6113 16.636 92.5123 16.9623 92.3143 17.241C92.1236 17.5197 91.8559 17.7397 91.5113 17.901C91.1666 18.055 90.7596 18.132 90.2903 18.132ZM98.6289 18.132C98.0423 18.132 97.4959 18.0257 96.9899 17.813C96.4913 17.6003 96.0549 17.3033 95.6809 16.922C95.3069 16.5407 95.0136 16.0933 94.8009 15.58C94.5956 15.0667 94.4929 14.5057 94.4929 13.897C94.4929 13.2883 94.5956 12.7273 94.8009 12.214C95.0063 11.6933 95.2959 11.246 95.6699 10.872C96.0439 10.4907 96.4803 10.1973 96.9789 9.992C97.4849 9.77933 98.0349 9.673 98.6289 9.673C99.2229 9.673 99.7546 9.772 100.224 9.97C100.701 10.168 101.104 10.432 101.434 10.762C101.764 11.092 101.999 11.4587 102.138 11.862L100.631 12.588C100.492 12.192 100.246 11.8657 99.8939 11.609C99.5493 11.345 99.1276 11.213 98.6289 11.213C98.1449 11.213 97.7196 11.3267 97.3529 11.554C96.9863 11.7813 96.7003 12.0967 96.4949 12.5C96.2969 12.896 96.1979 13.3617 96.1979 13.897C96.1979 14.4323 96.2969 14.9017 96.4949 15.305C96.7003 15.7083 96.9863 16.0237 97.3529 16.251C97.7196 16.4783 98.1449 16.592 98.6289 16.592C99.1276 16.592 99.5493 16.4637 99.8939 16.207C100.246 15.943 100.492 15.613 100.631 15.217L102.138 15.943C101.999 16.3463 101.764 16.713 101.434 17.043C101.104 17.373 100.701 17.637 100.224 17.835C99.7546 18.033 99.2229 18.132 98.6289 18.132ZM104.383 18.132C103.95 18.132 103.576 18.0623 103.261 17.923C102.945 17.7837 102.703 17.5857 102.535 17.329C102.366 17.065 102.282 16.7533 102.282 16.394C102.282 16.0567 102.359 15.7597 102.513 15.503C102.667 15.239 102.901 15.019 103.217 14.843C103.539 14.667 103.939 14.5423 104.416 14.469L106.253 14.172V15.382L104.713 15.657C104.478 15.701 104.298 15.778 104.174 15.888C104.049 15.9907 103.987 16.141 103.987 16.339C103.987 16.5223 104.056 16.6653 104.196 16.768C104.335 16.8707 104.507 16.922 104.713 16.922C104.984 16.922 105.222 16.8633 105.428 16.746C105.633 16.6287 105.791 16.471 105.901 16.273C106.018 16.0677 106.077 15.844 106.077 15.602V14.04C106.077 13.8127 105.985 13.622 105.802 13.468C105.626 13.314 105.384 13.237 105.076 13.237C104.782 13.237 104.522 13.3177 104.295 13.479C104.075 13.6403 103.913 13.853 103.811 14.117L102.491 13.49C102.608 13.1527 102.795 12.863 103.052 12.621C103.308 12.379 103.616 12.192 103.976 12.06C104.335 11.928 104.727 11.862 105.153 11.862C105.659 11.862 106.106 11.9537 106.495 12.137C106.883 12.3203 107.184 12.577 107.397 12.907C107.617 13.2297 107.727 13.6073 107.727 14.04V18H106.187V17.032L106.561 16.966C106.385 17.23 106.19 17.45 105.978 17.626C105.765 17.7947 105.527 17.9193 105.263 18C104.999 18.088 104.705 18.132 104.383 18.132ZM108.457 18V11.994H109.997V13.435L109.887 13.226C110.019 12.72 110.235 12.379 110.536 12.203C110.844 12.0197 111.207 11.928 111.625 11.928H111.977V13.358H111.46C111.056 13.358 110.73 13.4827 110.481 13.732C110.231 13.974 110.107 14.3187 110.107 14.766V18H108.457ZM115.047 18.132C114.46 18.132 113.936 17.9927 113.474 17.714C113.012 17.4353 112.645 17.0577 112.374 16.581C112.11 16.1043 111.978 15.5763 111.978 14.997C111.978 14.4103 112.114 13.8823 112.385 13.413C112.656 12.9363 113.023 12.5587 113.485 12.28C113.947 12.0013 114.464 11.862 115.036 11.862C115.476 11.862 115.865 11.9463 116.202 12.115C116.547 12.2763 116.818 12.5073 117.016 12.808L116.763 13.138V9.673H118.413V18H116.873V16.9L117.027 17.241C116.822 17.5343 116.543 17.758 116.191 17.912C115.839 18.0587 115.458 18.132 115.047 18.132ZM115.245 16.647C115.546 16.647 115.81 16.5773 116.037 16.438C116.264 16.2987 116.44 16.1043 116.565 15.855C116.697 15.6057 116.763 15.3197 116.763 14.997C116.763 14.6743 116.697 14.3883 116.565 14.139C116.44 13.8897 116.264 13.6953 116.037 13.556C115.81 13.4167 115.546 13.347 115.245 13.347C114.944 13.347 114.673 13.4203 114.431 13.567C114.196 13.7063 114.013 13.9007 113.881 14.15C113.749 14.392 113.683 14.6743 113.683 14.997C113.683 15.3197 113.749 15.6057 113.881 15.855C114.013 16.1043 114.196 16.2987 114.431 16.438C114.673 16.5773 114.944 16.647 115.245 16.647Z" fill="#7913E5"/>
<rect x="168.006" y="16" width="32" height="32" rx="6" fill="#F1D6FE"/>
<rect opacity="0.3" x="178.006" y="26" width="12" height="12" rx="2" fill="#7913E5"/>
<rect opacity="0.3" x="181.756" y="29.75" width="4.5" height="4.5" fill="#7913E5"/>
<path d="M190.006 28.25H190.756C191.17 28.25 191.506 28.5858 191.506 29C191.506 29.4142 191.17 29.75 190.756 29.75H190.006V28.25Z" fill="#7913E5"/>
<path d="M190.006 31.25H190.756C191.17 31.25 191.506 31.5858 191.506 32C191.506 32.4142 191.17 32.75 190.756 32.75H190.006V31.25Z" fill="#7913E5"/>
<path d="M190.006 34.25H190.756C191.17 34.25 191.506 34.5858 191.506 35C191.506 35.4142 191.17 35.75 190.756 35.75H190.006V34.25Z" fill="#7913E5"/>
<path d="M176.506 29C176.506 28.5858 176.842 28.25 177.256 28.25H178.006V29.75H177.256C176.842 29.75 176.506 29.4142 176.506 29Z" fill="#7913E5"/>
<path d="M176.506 32C176.506 31.5858 176.842 31.25 177.256 31.25H178.006V32.75H177.256C176.842 32.75 176.506 32.4142 176.506 32Z" fill="#7913E5"/>
<path d="M176.506 35C176.506 34.5858 176.842 34.25 177.256 34.25H178.006V35.75H177.256C176.842 35.75 176.506 35.4142 176.506 35Z" fill="#7913E5"/>
</svg>
