<svg width="16" height="16" viewBox="0 0 16 16" fill="none" xmlns="http://www.w3.org/2000/svg"><rect width="16" height="16" rx="8" fill="#013930"></rect><path d="M8 2.65625C11.0091 2.65647 13.3428 4.86369 13.3428 7.84082C13.3425 10.8177 11.009 13.0222 8 13.0225C7.45917 13.0225 6.94056 12.9509 6.45312 12.8174C6.35829 12.792 6.25648 12.7988 6.16699 12.8389L5.10645 13.3057C4.82862 13.4285 4.51619 13.2309 4.50684 12.9277L4.47754 11.9775C4.47487 11.86 4.4208 11.7503 4.33398 11.6729C3.29484 10.7432 2.65723 9.39627 2.65723 7.83887C2.65733 4.86168 4.99073 2.65625 8 2.65625ZM11.209 6.64453C11.3582 6.40564 11.0651 6.13634 10.8408 6.30664L9.15527 7.58691C9.04174 7.67373 8.88342 7.67338 8.76855 7.58789L7.51953 6.65137C7.14422 6.37122 6.61004 6.46866 6.36035 6.86523L4.79102 9.35547C4.64054 9.59448 4.9339 9.8623 5.1582 9.69141L6.84375 8.41211C6.95728 8.32529 7.1156 8.32565 7.23047 8.41113L8.47852 9.34668C8.8538 9.62714 9.38885 9.53035 9.63867 9.13379L11.209 6.64453Z" fill="white"></path></svg>