<svg width="58" height="55" viewBox="0 0 58 55" fill="none" xmlns="http://www.w3.org/2000/svg">
<g clip-path="url(#clip0_41298_490614)">
<path d="M55.4249 31.8737L56.3948 29.7937L54.2939 28.8685L47.5051 25.878L53.7445 21.8744L55.7343 20.5971L54.3556 18.6757L45.8038 6.75239L44.4627 4.88153L42.6253 6.27127L36.7208 10.7365L36.1894 3.22553L36.0279 0.943359L33.7489 1.14762L19.4736 2.42644L17.1879 2.63088L17.4411 4.91122L18.2712 12.3484L11.5174 8.92155L9.44654 7.87167L1.40625 25.1142L3.5416 26.0256L10.3494 28.9259L4.06632 33.0231L2.10998 34.2995L3.46275 36.2056L11.8877 48.068L13.2077 49.9274L15.0456 48.5792L21.1672 44.0912L21.5056 51.5486L21.6122 53.8811L23.9396 53.6829L38.3282 52.4586L40.6162 52.2635L40.3709 49.9803L39.5804 42.6424L46.3154 45.9714L48.376 46.99L55.4249 31.8737Z" fill="white" stroke="#051A2F" stroke-width="1.56923"/>
</g>
<defs>
<clipPath id="clip0_41298_490614">
<rect width="58" height="55" fill="white"/>
</clipPath>
</defs>
</svg>
