<svg width="16" height="16" viewBox="0 0 16 16" fill="none" xmlns="http://www.w3.org/2000/svg"><path d="M14.0365 4.78678C14.0426 4.92758 14.0426 5.06198 14.0426 5.20278C14.0488 9.47159 10.9125 14.3996 5.17699 14.3996C3.48536 14.3996 1.8246 13.894 0.398438 12.9468C0.645391 12.9788 0.892345 12.9916 1.1393 12.9916C2.54076 12.9916 3.90518 12.5052 5.0103 11.6028C3.67675 11.5772 2.50372 10.6748 2.09624 9.35639C2.56546 9.45239 3.04702 9.43319 3.50388 9.29879C2.05303 9.00439 1.00965 7.67959 1.00347 6.13718C1.00347 6.12438 1.00347 6.11158 1.00347 6.09878C1.43564 6.34838 1.92338 6.48918 2.41728 6.50198C1.05286 5.55478 0.62687 3.66677 1.45416 2.18837C3.04084 4.21078 5.37455 5.43318 7.88113 5.56758C7.62801 4.44758 7.97374 3.26997 8.78252 2.47637C10.0358 1.25397 12.0114 1.31797 13.1968 2.61717C13.8945 2.47637 14.5674 2.20757 15.1786 1.82997C14.944 2.57877 14.4563 3.21237 13.808 3.61557C14.4254 3.53877 15.0304 3.36597 15.5984 3.10997C15.1786 3.76278 14.6477 4.32598 14.0365 4.78678Z" fill="#1D9BF0"></path></svg>